<svg width="36" height="26" viewBox="0 0 36 26" fill="none" xmlns="http://www.w3.org/2000/svg">
<path d="M9.4209 15.9593L11.5557 9.6377H13.2873L15.4221 15.9557H13.7877L13.3917 14.6669H11.4045L11.0085 15.9557H9.4209V15.9593ZM13.0425 13.5221L12.3981 11.4377L11.7537 13.5221H13.0425Z" fill="url(#paint0_linear_1_1077)"/>
<path d="M21.1029 14.0225C21.1029 14.3357 21.0417 14.6129 20.9229 14.8505C20.8041 15.0881 20.6457 15.2861 20.4441 15.4409C20.2065 15.6281 19.9473 15.7613 19.6593 15.8405C19.3749 15.9197 19.0149 15.9593 18.5757 15.9593H16.0449V9.6377H18.2769C18.7413 9.6377 19.0941 9.6557 19.3317 9.6917C19.5693 9.7277 19.7961 9.79969 20.0049 9.91489C20.2317 10.0373 20.4009 10.1993 20.5125 10.4045C20.6241 10.6097 20.6817 10.8437 20.6817 11.1101C20.6817 11.4197 20.6061 11.6933 20.4513 11.9345C20.2965 12.1757 20.0841 12.3521 19.8141 12.4637V12.4961C20.2029 12.5789 20.5161 12.7445 20.7501 13.0001C20.9841 13.2521 21.1029 13.5941 21.1029 14.0225ZM19.0689 11.4269C19.0689 11.3261 19.0437 11.2217 18.9897 11.1137C18.9357 11.0057 18.8565 10.9301 18.7449 10.8797C18.6405 10.8329 18.5181 10.8113 18.3741 10.8041C18.2301 10.8005 18.0177 10.7969 17.7369 10.7969H17.6253V12.1361H17.8233C18.0933 12.1361 18.2841 12.1325 18.3957 12.1289C18.5037 12.1217 18.6153 12.0929 18.7341 12.0389C18.8601 11.9813 18.9501 11.8985 18.9969 11.7941C19.0473 11.6861 19.0689 11.5637 19.0689 11.4269ZM19.4685 13.9937C19.4685 13.7993 19.4289 13.6445 19.3497 13.5365C19.2705 13.4249 19.1517 13.3421 18.9933 13.2845C18.8961 13.2485 18.7665 13.2269 18.5973 13.2233C18.4281 13.2197 18.2049 13.2161 17.9205 13.2161H17.6289V14.8001H17.7153C18.1293 14.8001 18.4137 14.7965 18.5721 14.7929C18.7305 14.7857 18.8925 14.7497 19.0545 14.6777C19.1985 14.6165 19.3029 14.5229 19.3713 14.4041C19.4361 14.2817 19.4685 14.1449 19.4685 13.9937Z" fill="url(#paint1_linear_1_1077)"/>
<path d="M23.9609 16.0709C23.4785 16.0709 23.0537 16.0241 22.6865 15.9305C22.3193 15.8369 21.9809 15.7217 21.6641 15.5813V14.0801H21.8081C22.1249 14.3501 22.4741 14.5553 22.8557 14.6993C23.2373 14.8433 23.6081 14.9153 23.9681 14.9153C24.0581 14.9153 24.1769 14.9045 24.3281 14.8865C24.4757 14.8685 24.5945 14.8361 24.6881 14.7929C24.7997 14.7461 24.8933 14.6777 24.9689 14.5913C25.0445 14.5049 25.0841 14.3897 25.0841 14.2493C25.0841 14.0909 25.0229 13.9613 24.8969 13.8641C24.7709 13.7633 24.6233 13.6913 24.4505 13.6481C24.2345 13.5905 24.0041 13.5365 23.7629 13.4861C23.5181 13.4357 23.2913 13.3745 23.0789 13.2989C22.5893 13.1261 22.2401 12.8957 22.0277 12.6041C21.8153 12.3125 21.7109 11.9489 21.7109 11.5097C21.7109 10.9193 21.9629 10.4405 22.4633 10.0733C22.9637 9.70606 23.5901 9.52246 24.3389 9.52246C24.7169 9.52246 25.0913 9.56206 25.4621 9.63766C25.8329 9.71326 26.1677 9.81766 26.4629 9.94726V11.3909H26.3225C26.0885 11.1893 25.8005 11.0201 25.4621 10.8797C25.1237 10.7429 24.7781 10.6709 24.4217 10.6709C24.2813 10.6709 24.1589 10.6817 24.0473 10.6997C23.9357 10.7213 23.8205 10.7573 23.6981 10.8149C23.6009 10.8617 23.5145 10.9265 23.4425 11.0165C23.3705 11.1065 23.3345 11.2073 23.3345 11.3153C23.3345 11.4773 23.3921 11.6033 23.5073 11.7005C23.6225 11.7941 23.8421 11.8805 24.1697 11.9561C24.3821 12.0029 24.5873 12.0497 24.7817 12.0965C24.9797 12.1433 25.1885 12.2045 25.4117 12.2837C25.8509 12.4421 26.1749 12.6545 26.3909 12.9209C26.6033 13.1873 26.7113 13.5401 26.7113 13.9793C26.7113 14.6057 26.4629 15.1133 25.9697 15.4949C25.4693 15.8801 24.8033 16.0709 23.9609 16.0709Z" fill="url(#paint2_linear_1_1077)"/>
<path d="M5.25172 12.8668C5.25892 5.73877 10.9253 0.104767 18.0533 0.129967C25.0985 0.155167 30.7541 5.84317 30.7469 12.9028C30.7433 19.9984 25.0553 25.6432 17.9237 25.6288C10.8533 25.6144 5.24092 19.966 5.25172 12.8668ZM18.0533 1.5C12.8405 1.4676 5.99927 6 6.49927 13C6.44167 18.2668 10.3482 24.5 17.9237 24.5C25.4993 24.5 29.4525 17.7844 29.4993 12.9028C29.5461 8.02117 23.4893 1.4676 18.0533 1.5Z" fill="url(#paint3_linear_1_1077)"/>
<path d="M29.1733 25.8952C28.7521 25.8952 28.3345 25.7332 28.0213 25.4056C27.4057 24.7684 27.4201 23.7532 28.0573 23.134C30.8761 20.4052 32.4277 16.744 32.4277 12.82C32.4277 9.06877 30.9913 5.51917 28.3813 2.82637C27.7657 2.18917 27.7801 1.17397 28.4173 0.554773C29.0545 -0.0608267 30.0697 -0.0464267 30.6889 0.590773C33.8785 3.88837 35.6389 8.22997 35.6389 12.82C35.6389 17.6188 33.7381 22.1008 30.2929 25.4416C29.9797 25.744 29.5765 25.8952 29.1733 25.8952Z" fill="url(#paint4_linear_1_1077)"/>
<path d="M6.82498 25.8952C7.24618 25.8952 7.66378 25.7332 7.97698 25.4056C8.59258 24.7684 8.57818 23.7532 7.94098 23.134C5.12218 20.4052 3.57058 16.744 3.57058 12.82C3.57058 9.06877 5.00698 5.51917 7.61698 2.82637C8.23258 2.18917 8.21818 1.17397 7.58098 0.554773C6.94378 -0.0608267 5.92858 -0.0464267 5.30938 0.590773C2.11978 3.88837 0.359375 8.22997 0.359375 12.82C0.359375 17.6188 2.26018 22.1008 5.70538 25.4416C6.01858 25.744 6.42178 25.8952 6.82498 25.8952Z" fill="url(#paint5_linear_1_1077)"/>
<defs>
<linearGradient id="paint0_linear_1_1077" x1="8.99224" y1="12.5554" x2="15.8507" y2="12.5711" gradientUnits="userSpaceOnUse">
<stop stop-color="#024CAE"/>
<stop offset="0.492322" stop-color="#157DBF"/>
<stop offset="1" stop-color="#024CAE"/>
</linearGradient>
<linearGradient id="paint1_linear_1_1077" x1="15.6836" y1="12.5554" x2="21.4642" y2="12.5665" gradientUnits="userSpaceOnUse">
<stop stop-color="#024CAE"/>
<stop offset="0.492322" stop-color="#157DBF"/>
<stop offset="1" stop-color="#024CAE"/>
</linearGradient>
<linearGradient id="paint2_linear_1_1077" x1="21.3035" y1="12.5448" x2="27.0718" y2="12.5555" gradientUnits="userSpaceOnUse">
<stop stop-color="#024CAE"/>
<stop offset="0.492322" stop-color="#157DBF"/>
<stop offset="1" stop-color="#024CAE"/>
</linearGradient>
<linearGradient id="paint3_linear_1_1077" x1="3.43062" y1="11.8986" x2="32.5678" y2="11.969" gradientUnits="userSpaceOnUse">
<stop stop-color="#024CAE"/>
<stop offset="0.492322" stop-color="#157DBF"/>
<stop offset="1" stop-color="#024CAE"/>
</linearGradient>
<linearGradient id="paint4_linear_1_1077" x1="26.9929" y1="12.007" x2="36.2153" y2="12.0139" gradientUnits="userSpaceOnUse">
<stop stop-color="#024CAE"/>
<stop offset="0.492322" stop-color="#157DBF"/>
<stop offset="1" stop-color="#024CAE"/>
</linearGradient>
<linearGradient id="paint5_linear_1_1077" x1="-0.217024" y1="12.007" x2="9.00536" y2="12.0139" gradientUnits="userSpaceOnUse">
<stop stop-color="#024CAE"/>
<stop offset="0.492322" stop-color="#157DBF"/>
<stop offset="1" stop-color="#024CAE"/>
</linearGradient>
</defs>
</svg>
