<svg width="53" height="53" viewBox="0 0 53 53" fill="none" xmlns="http://www.w3.org/2000/svg">
<path d="M24.1461 31.9379H17.3239C17.3334 31.1183 17.5332 30.4024 17.9233 29.7901C18.3134 29.1779 18.8463 28.6456 19.5218 28.1935C19.8453 27.958 20.1831 27.7319 20.5352 27.5153C20.8872 27.2892 21.2107 27.049 21.5057 26.7946C21.8007 26.5403 22.0433 26.2671 22.2336 25.9751C22.4239 25.6737 22.5238 25.3298 22.5333 24.9436C22.5333 24.7647 22.5095 24.5763 22.4619 24.3784C22.4239 24.1712 22.343 23.9828 22.2193 23.8133C22.0956 23.6343 21.9243 23.4883 21.7055 23.3752C21.4867 23.2528 21.2012 23.1915 20.8492 23.1915C20.5256 23.1915 20.2545 23.2575 20.0356 23.3894C19.8263 23.5118 19.655 23.6861 19.5218 23.9122C19.3981 24.1288 19.303 24.3879 19.2364 24.6893C19.1793 24.9907 19.146 25.3157 19.1365 25.6643H17.5094C17.5094 25.1179 17.5808 24.6139 17.7235 24.1524C17.8757 23.6814 18.0993 23.2763 18.3943 22.9372C18.6893 22.5981 19.0461 22.3343 19.4647 22.1459C19.8929 21.9481 20.3877 21.8492 20.9491 21.8492C21.558 21.8492 22.0671 21.9481 22.4762 22.1459C22.8854 22.3438 23.2136 22.5934 23.461 22.8948C23.7179 23.1963 23.8987 23.5259 24.0034 23.8839C24.108 24.2324 24.1604 24.5668 24.1604 24.8871C24.1604 25.2828 24.0985 25.6407 23.9748 25.961C23.8511 26.2813 23.6846 26.578 23.4753 26.8512C23.266 27.1149 23.0281 27.3598 22.7617 27.5859C22.4952 27.812 22.2193 28.0239 21.9339 28.2217C21.6484 28.4196 21.363 28.608 21.0775 28.7869C20.7921 28.9659 20.5256 29.1449 20.2783 29.3239C20.0404 29.5028 19.8311 29.6912 19.6503 29.8891C19.4695 30.0775 19.3458 30.28 19.2792 30.4966H24.1461V31.9379Z" fill="#E19E26"/>
<path d="M26.3678 28.3207H29.3936V23.9687H29.365L26.3678 28.3207ZM32.2195 29.5923H30.935V31.9379H29.3936V29.5923H25.1118V27.9957L29.3936 22.047H30.935V28.3207H32.2195V29.5923Z" fill="#E19E26"/>
<path d="M32.4219 16.3237H33.6208V19.0828H33.6418C33.789 18.8398 34.0064 18.6385 34.2938 18.4789C34.5883 18.3123 34.9143 18.229 35.2719 18.229C35.8678 18.229 36.3375 18.3817 36.6811 18.6871C37.0246 18.9925 37.1964 19.4506 37.1964 20.0614V23.7575H35.9975V20.3738C35.9835 19.9504 35.8923 19.645 35.7241 19.4576C35.5558 19.2632 35.2929 19.166 34.9353 19.166C34.732 19.166 34.5497 19.2042 34.3885 19.2806C34.2272 19.35 34.0905 19.4506 33.9783 19.5825C33.8662 19.7074 33.7785 19.8567 33.7154 20.0302C33.6523 20.2037 33.6208 20.3877 33.6208 20.582V23.7575H32.4219V16.3237Z" fill="#E19E26"/>
<path d="M37.2865 42.2968L45.338 39.1073L38.5501 33.7292L37.2865 42.2968ZM11.5869 14.6215C19.6901 7.09683 31.8635 7.16843 38.7857 14.6228L39.8849 13.6021C32.3317 5.46829 19.2015 5.50359 10.5662 13.5223L11.5869 14.6215ZM38.7857 14.6228C44.2952 20.5559 44.8959 29.4473 40.8265 36.6356L42.1318 37.3746C46.4839 29.6871 45.8913 20.0703 39.8849 13.6021L38.7857 14.6228Z" fill="#E19E26"/>
<path d="M12.5491 34.858L12.5477 34.8566C11.977 34.2257 11.4859 33.4995 11.1125 32.8988C10.9739 32.6758 10.8539 32.474 10.7516 32.3009C10.9122 32.1712 11.0847 32.0351 11.2675 31.891C11.3375 31.8358 11.4089 31.7795 11.4818 31.7218C11.9423 31.3576 12.4453 30.9525 12.9059 30.5197C13.7807 29.6975 14.7129 28.588 14.6645 27.2678L14.6645 27.2668C14.6334 26.4486 14.2273 25.5608 13.7299 24.755C13.2184 23.9262 12.5473 23.0846 11.8649 22.3371C11.1819 21.5888 10.4707 20.9162 9.86802 20.4279C9.56822 20.185 9.28136 19.9763 9.02872 19.8259C8.90296 19.7511 8.77068 19.6816 8.63898 19.6302C8.52312 19.585 8.33384 19.5235 8.11898 19.538L8.09345 19.5397L8.06809 19.5431C7.34061 19.6421 6.58651 20.0412 5.90465 20.5166C5.20622 21.0035 4.5075 21.6249 3.88082 22.2621C3.25291 22.9005 2.68306 23.5694 2.24423 24.1611C1.82829 24.7219 1.46401 25.2997 1.33793 25.7363L1.33406 25.7497L1.33069 25.7633C0.65579 28.4749 1.4967 30.7829 3.44386 33.7426C4.76574 36.0212 7.53411 39.1233 10.4932 41.9116C13.4514 44.6989 16.7045 47.271 19.043 48.4403C22.088 50.196 24.4254 50.8837 27.0501 49.9933C27.2893 49.9154 27.5336 49.7703 27.7531 49.6184C27.9865 49.457 28.2401 49.2535 28.5012 49.0225C29.0238 48.5602 29.6052 47.9617 30.1524 47.3054C30.6989 46.65 31.2243 45.9214 31.6253 45.197C32.0185 44.4867 32.3292 43.7149 32.37 42.9884L32.3713 42.9656L32.3712 42.9428C32.3702 42.7182 32.2879 42.5266 32.2323 42.4144C32.168 42.2844 32.0845 42.1541 31.9956 42.0301C31.8168 41.7809 31.573 41.4978 31.2913 41.2018C30.725 40.6068 29.9552 39.9074 29.1133 39.2419C28.2724 38.577 27.34 37.9305 26.447 37.4518C25.5839 36.9892 24.6448 36.6205 23.8261 36.6498C23.1531 36.6727 22.5637 36.955 22.0673 37.3255C21.5728 37.6945 21.1326 38.179 20.7445 38.6758C20.3544 39.175 19.9949 39.7155 19.6723 40.2101C19.6208 40.289 19.5706 40.3663 19.5213 40.442C19.4138 40.6073 19.3114 40.7648 19.2129 40.9137C19.1269 40.8545 19.0339 40.79 18.9343 40.7198C18.4615 40.3863 17.849 39.93 17.2048 39.36L17.1921 39.3487L17.1789 39.338C15.4926 37.977 13.8667 36.3225 12.5491 34.858Z" stroke="#E19E26" stroke-width="1.5"/>
</svg>
