<svg width="18" height="29" viewBox="0 0 18 29" fill="none" xmlns="http://www.w3.org/2000/svg">
<path d="M9.45627 0.139128C9.30886 0.219158 9.1061 0.403261 9.00171 0.544659L8.81729 0.808792L8.7866 6.02533L8.75592 11.2419L5.28424 7.77082L1.81255 4.29914L0.909439 5.20225L0 6.11169L4.12901 10.2407L8.26435 14.376L4.12901 18.5111L0 22.6404L0.903113 23.5498L1.81255 24.4529L5.29657 20.9689L8.7866 17.4789V22.6464V27.8139L8.928 28.0844C9.13077 28.4592 9.49328 28.705 9.91716 28.7417C10.5685 28.7971 10.4211 28.9138 14.1876 25.1656C16.5287 22.8308 17.6836 21.6386 17.7636 21.4728C17.905 21.1717 17.911 20.7171 17.7883 20.41C17.7206 20.2562 16.7805 19.2671 14.7899 17.2761L11.8898 14.376L14.7899 11.4696C16.7805 9.485 17.7209 8.49553 17.7883 8.34211C17.905 8.04729 17.905 7.61709 17.7883 7.32227C17.6532 7.00879 10.9433 0.280842 10.5992 0.114771C10.255 -0.0449753 9.79442 -0.0389633 9.45627 0.139128ZM14.7468 7.83219C14.7468 7.8692 13.9848 8.65559 13.057 9.58338L11.3672 11.2732V7.83219V4.39119L13.057 6.08101C13.9848 7.00879 14.7468 7.79518 14.7468 7.83219ZM14.7468 20.9199C14.7468 20.9569 13.9848 21.7433 13.057 22.6711L11.3672 24.3609V20.9199V17.4789L13.057 19.1687C13.9848 20.0965 14.7468 20.8829 14.7468 20.9199Z" fill="url(#paint0_linear_1_1068)"/>
<defs>
<linearGradient id="paint0_linear_1_1068" x1="-1.27685" y1="15.485" x2="19.1527" y2="15.4543" gradientUnits="userSpaceOnUse">
<stop stop-color="#024CAE"/>
<stop offset="0.492322" stop-color="#157DBF"/>
<stop offset="1" stop-color="#024CAE"/>
</linearGradient>
</defs>
</svg>
