<svg width="15" height="15" viewBox="0 0 15 15" fill="none" xmlns="http://www.w3.org/2000/svg">
<path fill-rule="evenodd" clip-rule="evenodd" d="M14.7304 12.9958C14.2674 14.4027 12.4534 15.1044 11.1574 14.9874C9.38738 14.8274 7.46139 13.8886 5.99935 12.8547C3.85033 11.3347 1.83731 8.98354 0.6643 6.48863C-0.164706 4.72567 -0.350705 2.55813 0.882305 0.951175C1.33831 0.35719 1.83131 0.0399563 2.57232 0.00295725C3.60033 -0.0470414 3.74433 0.541044 4.09733 1.45702C4.36034 2.142 4.71133 2.84073 4.90734 3.55071C5.27434 4.87568 3.99133 4.93105 3.82933 6.01403C3.72833 6.69698 4.55633 7.61289 4.93034 8.09991C5.66334 9.05385 6.54433 9.87666 7.53838 10.5027C8.10739 10.8617 9.02638 11.5086 9.67836 11.1516C10.6824 10.6016 10.5874 8.90872 11.9914 9.48169C12.7184 9.7777 13.4224 10.2048 14.1164 10.5788C15.1894 11.1558 15.1394 11.7538 14.7304 12.9958C15.0364 12.0678 14.4244 13.9237 14.7304 12.9958Z" fill="black"/>
</svg>
