<svg width="31" height="27" viewBox="0 0 31 27" fill="none" xmlns="http://www.w3.org/2000/svg">
<path d="M8.18594 5.14688L6.60566 9.64286H24.3943L22.8141 5.14688C22.5416 4.37545 21.809 3.85714 20.9855 3.85714H10.0145C9.19102 3.85714 8.4584 4.37545 8.18594 5.14688ZM2.39766 9.93214L4.52891 3.87522C5.34629 1.55491 7.54414 0 10.0145 0H20.9855C23.4559 0 25.6537 1.55491 26.4711 3.87522L28.6023 9.93214C30.007 10.5107 31 11.8908 31 13.5V22.1786V25.0714C31 26.1382 30.1342 27 29.0625 27H27.125C26.0533 27 25.1875 26.1382 25.1875 25.0714V22.1786H5.8125V25.0714C5.8125 26.1382 4.94668 27 3.875 27H1.9375C0.86582 27 0 26.1382 0 25.0714V22.1786V13.5C0 11.8908 0.992969 10.5107 2.39766 9.93214ZM7.75 15.4286C7.75 14.9171 7.54587 14.4265 7.18252 14.0649C6.81917 13.7032 6.32636 13.5 5.8125 13.5C5.29864 13.5 4.80583 13.7032 4.44248 14.0649C4.07913 14.4265 3.875 14.9171 3.875 15.4286C3.875 15.9401 4.07913 16.4306 4.44248 16.7923C4.80583 17.154 5.29864 17.3571 5.8125 17.3571C6.32636 17.3571 6.81917 17.154 7.18252 16.7923C7.54587 16.4306 7.75 15.9401 7.75 15.4286ZM25.1875 17.3571C25.7014 17.3571 26.1942 17.154 26.5575 16.7923C26.9209 16.4306 27.125 15.9401 27.125 15.4286C27.125 14.9171 26.9209 14.4265 26.5575 14.0649C26.1942 13.7032 25.7014 13.5 25.1875 13.5C24.6736 13.5 24.1808 13.7032 23.8175 14.0649C23.4541 14.4265 23.25 14.9171 23.25 15.4286C23.25 15.9401 23.4541 16.4306 23.8175 16.7923C24.1808 17.154 24.6736 17.3571 25.1875 17.3571Z" fill="url(#paint0_linear_1_1061)"/>
<defs>
<linearGradient id="paint0_linear_1_1061" x1="-2.21429" y1="12.4615" x2="33.214" y2="12.5599" gradientUnits="userSpaceOnUse">
<stop stop-color="#024CAE"/>
<stop offset="0.492322" stop-color="#157DBF"/>
<stop offset="1" stop-color="#024CAE"/>
</linearGradient>
</defs>
</svg>
