<svg width="51" height="49" viewBox="0 0 51 49" fill="none" xmlns="http://www.w3.org/2000/svg">
<ellipse cx="30.556" cy="29.3505" rx="14.7083" ry="14.5673" stroke="#E19E26" stroke-width="1.5" stroke-linecap="round"/>
<ellipse cx="30.5557" cy="29.3507" rx="18.7818" ry="18.6017" stroke="#E19E26" stroke-width="1.5" stroke-linecap="round"/>
<rect x="32.9365" y="1" width="12.8444" height="4.58083" rx="1" transform="rotate(20.5479 32.9365 1)" stroke="#E19E26" stroke-width="1.5" stroke-linecap="round"/>
<path d="M33.9744 6.7561L32.5125 10.4494" stroke="#E19E26" stroke-width="1.5" stroke-linecap="round"/>
<path d="M41.3613 9.29541L39.8994 12.9887" stroke="#E19E26" stroke-width="1.5" stroke-linecap="round"/>
<circle cx="30.556" cy="29.3507" r="2.6373" stroke="#E19E26" stroke-width="1.5" stroke-linecap="round"/>
<path d="M28.2792 27.198L23.2065 22.8123" stroke="#E19E26" stroke-width="1.5" stroke-linecap="round"/>
<path d="M31.2383 26.2997L34.8841 15.9431" stroke="#E19E26" stroke-width="1.5" stroke-linecap="round"/>
<path d="M30.8687 32.165L31.3441 34.7543" stroke="#E19E26" stroke-width="1.5" stroke-linecap="round"/>
<path d="M20.0157 13.4768H1.08325" stroke="#E19E26" stroke-width="1.5" stroke-linecap="round"/>
<path d="M12.009 23.3188H6.83789" stroke="#E19E26" stroke-width="1.5" stroke-linecap="round"/>
<path d="M3.5022 33.3269H11.6757" stroke="#E19E26" stroke-width="1.5" stroke-linecap="round"/>
<path d="M1 28.0723H8.08927" stroke="#E19E26" stroke-width="1.5" stroke-linecap="round"/>
<path d="M9.84082 43.1685H17.8475" stroke="#E19E26" stroke-width="1.5" stroke-linecap="round"/>
<path d="M4.00244 18.3982H11.759" stroke="#E19E26" stroke-width="1.5" stroke-linecap="round"/>
<path d="M5.83765 38.2478H10.5916" stroke="#E19E26" stroke-width="1.5" stroke-linecap="round"/>
</svg>
