<svg width="52" height="63" viewBox="0 0 52 63" fill="none" xmlns="http://www.w3.org/2000/svg">
<path d="M7.96117 22.2684C7.4927 21.8625 7.1069 21.5483 6.74866 21.2211C5.81172 20.3439 5.83928 19.8988 6.90022 19.1265C10.524 16.4689 14.63 14.8064 19.108 13.9554C26.4795 12.5547 33.6443 13.17 40.4508 16.2726C42.1318 17.0319 43.675 18.0923 45.2458 19.0872C46.1 19.6239 46.1 20.2261 45.356 20.92C44.9151 21.3389 44.4604 21.7316 43.9781 22.1767C45.6178 23.7346 47.2023 25.2401 48.8006 26.7456C49.2691 27.1907 49.8615 27.6227 49.4895 28.3558C49.1037 29.102 48.3597 28.8663 47.7121 28.7878C46.3756 28.6176 45.0391 28.4212 43.5786 28.2249C43.7163 29.1674 43.8266 30.0184 43.9506 30.8693C44.047 31.4977 44.1297 32.126 44.2399 32.7413C44.3226 33.2257 44.171 33.6184 43.7163 33.841C43.2617 34.0635 42.8207 33.9588 42.4625 33.6184C40.1477 31.4191 37.8191 29.2067 35.5044 26.9943C34.9532 26.4706 34.967 25.9994 35.5181 25.4495C35.7662 25.2008 36.0555 24.9651 36.3173 24.7295C33.0793 21.496 21.1334 21.5614 15.8838 24.8473C16.0629 25.0306 16.2283 25.2008 16.4074 25.3579C17.055 25.9994 17.0687 26.4445 16.3936 27.0859C14.3819 28.9972 12.3703 30.9086 10.3586 32.8199C10.1106 33.0555 9.8626 33.2781 9.62836 33.5137C9.24257 33.9065 8.78788 34.0635 8.26429 33.8148C7.76827 33.5661 7.6856 33.1472 7.76827 32.6366C7.97495 31.406 8.14029 30.1755 8.33319 28.9449C8.36074 28.7354 8.36074 28.526 8.3883 28.2118C7.1069 28.382 5.89439 28.5391 4.68189 28.6961C4.36498 28.7354 4.04808 28.7747 3.73117 28.8271C3.19381 28.9318 2.7529 28.8009 2.50489 28.3165C2.27065 27.8452 2.42222 27.4394 2.80801 27.0728C4.32365 25.6459 5.8255 24.2059 7.34114 22.7789C7.47892 22.6611 7.65804 22.5171 7.96117 22.2684ZM8.84299 20.2261C10.2071 21.5614 11.5436 22.8706 12.825 24.1273C21.5881 19.4537 30.3374 18.7861 39.1557 23.9179C40.4508 22.6611 41.8149 21.352 43.1652 20.0559C33.5478 13.2616 17.6612 13.7722 8.84299 20.2261ZM45.4662 26.5099C44.4328 25.5412 43.4408 24.6248 42.4487 23.6822C42.4763 23.6691 42.4349 23.6822 42.4074 23.7084C41.7598 24.3237 41.0984 24.939 40.4508 25.5543C39.3899 26.5492 39.3348 26.5492 38.0396 25.7899C37.9018 25.9339 37.7503 26.091 37.6951 26.1434C39.073 27.4525 40.3957 28.7354 41.746 30.0315C41.622 29.1543 41.498 28.2772 41.374 27.4001C41.25 26.4837 41.7185 26.0255 42.6692 26.1565C43.5923 26.2612 44.5155 26.379 45.4662 26.5099ZM14.4646 26.0386C14.0926 26.0648 13.817 25.9994 13.6379 26.1041C12.7147 26.6146 12.4943 26.6016 11.7227 25.8946C10.9235 25.1484 10.1382 24.4022 9.49058 23.8C8.48475 24.7557 7.54781 25.6459 6.67977 26.4837C7.42381 26.3921 8.30563 26.2743 9.18745 26.1695C10.2484 26.0255 10.7031 26.4445 10.5653 27.4525C10.4551 28.3165 10.3311 29.1805 10.2071 30.0838C11.6125 28.7485 12.949 27.4787 14.4646 26.0386Z" fill="black"/>
<path d="M15.1811 50.8987C14.2855 50.1917 13.4313 49.511 12.577 48.8302C10.2484 46.9844 7.93364 45.1385 5.60507 43.2927C4.53035 42.4417 3.24895 42.4679 2.49114 43.3712C1.70576 44.2876 1.89866 45.5574 2.97338 46.3822C7.97497 50.2179 12.9766 54.0536 17.9782 57.8894C18.7773 58.5047 19.604 59.1069 20.3894 59.7483C20.8441 60.1149 21.2988 60.1672 21.8499 59.9709C26.9893 58.2297 32.1287 56.5017 37.268 54.7737C37.8467 54.5773 38.453 54.3417 39.0455 54.3155C39.7344 54.2893 40.506 54.3155 41.0984 54.6035C44.1711 56.109 47.2023 57.693 50.2474 59.2639C50.9225 59.6174 51.1292 60.128 50.8398 60.6516C50.5367 61.2014 49.958 61.3062 49.2415 60.9396C46.4996 59.5389 43.7301 58.1643 41.0296 56.685C40.0788 56.1744 39.2246 56.1351 38.2325 56.4755C34.8568 57.6406 31.4535 58.7665 28.064 59.9054C26.1901 60.5338 24.3025 61.1622 22.4286 61.8036C21.2161 62.2226 20.1414 62.0262 19.1493 61.2669C13.321 56.7766 7.47895 52.2994 1.63687 47.8222C-0.250782 46.3822 -0.54013 43.8294 0.947946 42.1014C2.42224 40.4126 4.95749 40.2424 6.84514 41.7479C9.57328 43.908 12.3014 46.0942 15.0433 48.2411C15.3465 48.4768 15.4429 48.6993 15.374 49.079C15.25 49.655 15.2362 50.231 15.1811 50.8987Z" fill="black"/>
<path d="M21.9048 54.394C19.7554 54.2762 18.3913 53.4253 17.6197 51.7758C16.8895 50.2179 17.2064 48.5292 18.5705 47.3379C19.2732 46.7226 20.1412 46.1597 21.0368 45.8717C26.0384 44.2352 31.0813 42.7036 36.0967 41.0934C37.3643 40.6875 38.5493 40.8053 39.6791 41.3814C43.5371 43.345 47.3813 45.3349 51.2392 47.3248C51.9419 47.6913 52.1624 48.2412 51.8317 48.7648C51.5148 49.2754 50.9637 49.3801 50.2747 49.0266C46.5683 47.1153 42.8481 45.2171 39.1417 43.2927C38.2186 42.8083 37.3505 42.7298 36.3171 43.057C31.4396 44.628 26.5206 46.1335 21.6431 47.7044C21.0368 47.9008 20.4581 48.2935 19.9896 48.7124C19.1629 49.4456 19.094 50.4536 19.659 51.3438C20.2377 52.234 21.2848 52.6267 22.332 52.3256C25.1841 51.5009 28.0363 50.6761 30.8884 49.8514C30.9711 49.8252 31.0675 49.799 31.1502 49.7728C31.8391 49.5896 32.3903 49.8121 32.5694 50.3358C32.7623 50.9118 32.4592 51.4092 31.7427 51.6187C29.0283 52.4173 26.314 53.2027 23.5858 53.9882C22.9658 54.1453 22.3182 54.2893 21.9048 54.394Z" fill="black"/>
<path d="M12.2051 14.2303C12.2051 13.9554 12.2051 13.7852 12.2051 13.6151C12.2051 9.8186 12.2051 6.02214 12.2051 2.22569C12.2051 0.81184 13.018 0.0263672 14.4923 0.0263672C22.1394 0.0263672 29.7864 0.0263672 37.4197 0.0263672C38.9078 0.0263672 39.7345 0.81184 39.7345 2.19951C39.7345 5.95669 39.7345 9.70078 39.7345 13.458C39.7345 13.6281 39.7207 13.7983 39.7069 14.034C39.0869 13.8245 38.4944 13.6543 37.9433 13.3925C37.7779 13.314 37.6953 12.9736 37.6953 12.751C37.6815 9.41277 37.6815 6.07451 37.6815 2.73625C37.6815 2.50061 37.6815 2.26497 37.6815 2.00314C29.8553 2.00314 22.0843 2.00314 14.2443 2.00314C14.2443 2.26497 14.2443 2.50061 14.2443 2.72316C14.2443 6.10069 14.2305 9.47823 14.2581 12.8689C14.2581 13.327 14.1616 13.5889 13.6518 13.7198C13.2109 13.8376 12.77 14.034 12.2051 14.2303Z" fill="black"/>
<path d="M17.303 27.1777C17.303 26.5624 17.2892 25.9602 17.303 25.3449C17.3168 24.651 17.6888 24.2583 18.3915 24.2452C19.7142 24.219 21.0507 24.219 22.3735 24.2452C23.0073 24.2583 23.3931 24.6249 23.4069 25.2402C23.4344 26.4969 23.4344 27.7668 23.4069 29.0235C23.3931 29.6781 23.0211 30.0315 22.3321 30.0577C21.0232 30.0839 19.7142 30.0839 18.4191 30.0577C17.6612 30.0446 17.3168 29.665 17.303 28.9319C17.303 28.3559 17.303 27.7668 17.303 27.1777ZM21.3677 28.1071C21.3677 27.4526 21.3677 26.8635 21.3677 26.2351C20.6925 26.2351 20.0449 26.2351 19.3973 26.2351C19.3973 26.8766 19.3973 27.4788 19.3973 28.1071C20.0587 28.1071 20.6649 28.1071 21.3677 28.1071Z" fill="black"/>
<path d="M28.5325 27.086C28.5325 26.523 28.5187 25.947 28.5325 25.3841C28.56 24.6117 28.9183 24.2583 29.7174 24.2452C30.9713 24.2321 32.2389 24.2321 33.4927 24.2452C34.2506 24.2583 34.6364 24.6248 34.6501 25.3317C34.6639 26.5492 34.6639 27.7667 34.6501 28.9842C34.6364 29.6649 34.2643 30.0315 33.5341 30.0577C32.2527 30.0839 30.9713 30.0839 29.6899 30.0577C28.9045 30.0446 28.5738 29.7042 28.5325 28.9711C28.5325 28.9318 28.5325 28.8795 28.5325 28.8402C28.5325 28.2642 28.5325 27.6751 28.5325 27.086ZM32.5558 28.1071C32.5558 27.4394 32.5558 26.8372 32.5558 26.235C31.8807 26.235 31.2469 26.235 30.5993 26.235C30.5993 26.8765 30.5993 27.4656 30.5993 28.1071C31.2606 28.1071 31.8807 28.1071 32.5558 28.1071Z" fill="black"/>
<path d="M31.5637 38.7766C30.9161 38.7766 30.2823 38.7897 29.6347 38.7766C28.932 38.7635 28.5462 38.4493 28.5324 37.7817C28.5048 36.5249 28.5048 35.2551 28.5324 33.9983C28.5462 33.3307 28.9182 33.0034 29.6071 32.9903C30.9161 32.9772 32.225 32.9772 33.5202 32.9903C34.2367 33.0034 34.6225 33.3568 34.6363 34.0376C34.65 35.2551 34.65 36.4726 34.6363 37.69C34.6225 38.4101 34.2505 38.7504 33.4789 38.7635C32.8451 38.7897 32.1975 38.7766 31.5637 38.7766ZM32.5419 36.8129C32.5419 36.1976 32.5419 35.5823 32.5419 34.9671C31.8806 34.9671 31.2467 34.9671 30.5992 34.9671C30.5992 35.6085 30.5992 36.1976 30.5992 36.8129C31.2743 36.8129 31.8806 36.8129 32.5419 36.8129Z" fill="black"/>
<path d="M20.3896 32.9902C21.0509 32.9902 21.7123 32.9771 22.3875 32.9902C23.0213 33.0033 23.3933 33.3306 23.4071 33.9197C23.4346 35.2288 23.4346 36.5379 23.4071 37.8339C23.3933 38.4492 23.0075 38.7634 22.3323 38.7765C21.0234 38.7896 19.7144 38.7896 18.4193 38.7765C17.7028 38.7634 17.317 38.41 17.317 37.7161C17.3032 36.4986 17.3032 35.2812 17.317 34.0637C17.3308 33.3437 17.7028 33.0033 18.4744 32.9902C19.1082 32.9771 19.7558 32.9902 20.3896 32.9902ZM21.3541 36.7997C21.3541 36.1714 21.3541 35.5823 21.3541 34.9539C20.6789 34.9539 20.0589 34.9539 19.3975 34.9539C19.3975 35.5823 19.3975 36.1844 19.3975 36.7997C20.0589 36.7997 20.6927 36.7997 21.3541 36.7997Z" fill="black"/>
<path d="M17.303 9.75319C17.303 9.13791 17.2892 8.53571 17.303 7.92042C17.3168 7.18732 17.6888 6.82076 18.4328 6.80767C19.7142 6.79458 20.9956 6.79458 22.277 6.80767C23.0073 6.82076 23.3931 7.14804 23.4069 7.84188C23.4344 9.08554 23.4344 10.3292 23.4069 11.5598C23.3931 12.2667 23.0348 12.5809 22.2908 12.594C21.0094 12.6071 19.728 12.6071 18.4466 12.594C17.675 12.5809 17.3306 12.2274 17.303 11.4943C17.2892 10.9314 17.303 10.3423 17.303 9.75319ZM19.3973 10.6565C20.0587 10.6565 20.6925 10.6565 21.3677 10.6565C21.3677 10.015 21.3677 9.42591 21.3677 8.79753C20.6925 8.79753 20.0587 8.79753 19.3973 8.79753C19.3973 9.439 19.3973 10.0281 19.3973 10.6565Z" fill="black"/>
<path d="M31.6049 12.6204C30.9573 12.6204 30.3235 12.6334 29.6759 12.6204C28.8905 12.6073 28.5461 12.28 28.5323 11.5338C28.5185 10.3425 28.5185 9.13809 28.5323 7.94679C28.5461 7.17441 28.9181 6.83404 29.7173 6.83404C30.9711 6.82095 32.2387 6.82095 33.4926 6.83404C34.2504 6.84713 34.6362 7.20059 34.6362 7.92061C34.65 9.11191 34.65 10.3163 34.6362 11.5076C34.6224 12.2669 34.2642 12.6073 33.4374 12.6204C32.8312 12.6334 32.2112 12.6204 31.6049 12.6204ZM30.6129 8.78463C30.6129 9.45228 30.6129 10.0545 30.6129 10.6436C31.3018 10.6436 31.9356 10.6436 32.5556 10.6436C32.5556 9.98902 32.5556 9.39992 32.5556 8.78463C31.8805 8.78463 31.2742 8.78463 30.6129 8.78463Z" fill="black"/>
<path d="M14.2029 45.073C13.5829 44.5755 13.018 44.1566 12.4944 43.6984C12.3428 43.5544 12.2188 43.2926 12.2188 43.0962C12.2051 40.2162 12.2051 37.3361 12.2188 34.456C12.2188 34.2597 12.2877 34.0109 12.4255 33.88C12.9629 33.304 13.5278 32.7673 14.2029 32.0996C14.2029 36.4983 14.2029 40.7267 14.2029 45.073Z" fill="black"/>
<path d="M19.3834 43.8034C19.3283 44.4187 19.3283 44.4187 17.3166 45.61C17.3166 44.5627 17.2753 43.5416 17.3304 42.5336C17.358 41.9838 17.7989 41.6827 18.3638 41.6827C19.6865 41.6696 21.0231 41.6696 22.3458 41.6827C22.8418 41.6827 23.2276 41.9052 23.3654 42.4027C23.4756 42.7954 23.4756 43.1358 22.9107 43.2274C21.7671 43.4107 20.6235 43.6071 19.3834 43.8034Z" fill="black"/>
<path d="M37.8881 32.1782C38.4668 32.7542 39.0455 33.3302 39.5966 33.9324C39.6931 34.0372 39.7344 34.2074 39.7344 34.3514C39.7482 35.9616 39.7344 37.5718 39.7344 39.2475C39.0317 39.1166 38.3841 38.9987 37.709 38.8678C37.709 36.6685 37.709 34.4954 37.709 32.3222C37.7779 32.2699 37.833 32.2306 37.8881 32.1782Z" fill="black"/>
</svg>
