<svg width="101" height="81" viewBox="0 0 101 81" fill="none" xmlns="http://www.w3.org/2000/svg">
<path d="M69.323 53.5615C67.7388 47.926 67.7003 47.4736 66.5784 43.3872C66.1635 41.876 64.8078 40.8141 63.2417 40.7627L51.3451 40.374L39.2795 40.7684C37.8038 40.8167 36.4974 41.763 36.0373 43.1659C34.6114 47.5136 34.8871 48.043 32.8403 53.7834" stroke="black" stroke-width="2.5"/>
<path d="M65.0276 74.1374H37.2888C34.5426 74.1374 32.5867 74.1354 31.1058 73.9346C29.6541 73.7374 28.8171 73.3677 28.2102 72.7474C27.6032 72.1271 27.252 71.2824 27.0877 69.8266C26.9198 68.3411 26.9609 66.3862 27.0215 63.6406L27.0302 63.2493C27.0826 60.8842 27.1216 59.2081 27.3152 57.9234C27.5041 56.6684 27.8246 55.9161 28.3535 55.34C28.8839 54.7618 29.6018 54.3797 30.8228 54.0855C32.0747 53.7841 33.7241 53.6033 36.0538 53.3512C41.9934 52.7083 48.828 52.0444 51.4303 52.069C53.6543 52.0906 56.7363 52.4131 60.4231 52.7992C61.9605 52.9599 63.6037 53.132 65.3337 53.2978C67.9602 53.5494 69.8396 53.7312 71.2496 54.0362C72.6438 54.3376 73.4207 54.7299 73.9444 55.2927C73.9547 55.3035 73.9634 55.3133 73.9737 55.3246C74.4975 55.8981 74.8215 56.6848 75.0074 58.0379C75.1958 59.413 75.2236 61.22 75.2605 63.7546C75.3001 66.4638 75.3257 68.3925 75.1506 69.858C74.9786 71.2947 74.6284 72.1297 74.0302 72.7428C74.0194 72.7541 74.0086 72.7654 73.9973 72.7761C73.393 73.3836 72.5631 73.7456 71.129 73.9382C69.666 74.1354 67.7373 74.1374 65.0276 74.1374Z" stroke="black" stroke-width="2.5"/>
<path d="M27.7397 68.5371H74.788" stroke="black" stroke-width="2.5" stroke-linecap="round"/>
<path d="M41.4515 52.8711L44.5987 59.2821" stroke="black" stroke-width="2.5" stroke-linecap="round"/>
<path d="M60.7425 52.8711L57.5953 59.2821" stroke="black" stroke-width="2.5" stroke-linecap="round"/>
<path d="M62.0237 68.767L60.3985 61.8215C60.1269 60.6605 59.0912 59.8389 57.8988 59.8389H44.3873C43.1827 59.8389 42.1397 60.6748 41.8799 61.8518C41.4676 63.7183 40.8447 66.5358 40.3477 68.767" stroke="black" stroke-width="2.5"/>
<path d="M26.9707 67.9492V76.5898C26.9707 77.7241 27.8904 78.6437 29.0247 78.6437H34.3932C35.5275 78.6437 36.4472 77.7241 36.4472 76.5898V67.9492" stroke="black" stroke-width="2.5"/>
<path d="M65.9252 67.9573V76.5912C65.9252 77.7255 66.8448 78.6451 67.9791 78.6451H73.2014C74.3357 78.6451 75.2553 77.7255 75.2553 76.5912V67.6836" stroke="black" stroke-width="2.5"/>
<path d="M68.2812 50.0195H72.476C73.6103 50.0195 74.5299 50.9392 74.5299 52.0735V54.1419C74.5299 54.6615 74.0206 55.0287 73.5271 54.8643" stroke="black" stroke-width="2.5"/>
<path d="M33.9147 50.0195H29.7205C28.5862 50.0195 27.6665 50.9392 27.6665 52.0735V54.1419C27.6665 54.6615 28.1759 55.0287 28.6688 54.8643" stroke="black" stroke-width="2.5"/>
<path d="M33.7438 59.6143H34.0847C35.1672 59.6143 36.0442 60.4918 36.0442 61.5737C36.0442 62.6562 35.1667 63.5332 34.0847 63.5332H33.7438C32.6613 63.5332 31.7843 62.6557 31.7843 61.5737C31.7843 60.4918 32.6613 59.6143 33.7438 59.6143Z" stroke="black" stroke-width="2.5"/>
<path d="M68.0769 59.6143H68.4179C69.5003 59.6143 70.3774 60.4918 70.3774 61.5737C70.3774 62.6562 69.4998 63.5332 68.4179 63.5332H68.0769C66.9945 63.5332 66.1174 62.6557 66.1174 61.5737C66.1174 60.4918 66.995 59.6143 68.0769 59.6143Z" stroke="black" stroke-width="2.5"/>
<path d="M2 78.7871V29.3338C2 24.9573 4.59442 20.9971 8.60671 19.2492L46.1036 2.91391C48.9053 1.69337 52.0885 1.69337 54.8902 2.91391L92.3871 19.2492C96.3994 20.9971 98.9938 24.9573 98.9938 29.3338V78.7871" stroke="black" stroke-width="3" stroke-linecap="round"/>
<path d="M13.5239 78.7874V30.8897C13.5239 29.2328 14.8671 27.8896 16.5239 27.8896H86.3904C88.0472 27.8896 89.3904 29.2328 89.3904 30.8896V78.7874" stroke="black" stroke-width="3" stroke-linecap="round"/>
</svg>
