<svg width="42" height="45" viewBox="0 0 42 45" fill="none" xmlns="http://www.w3.org/2000/svg">
<rect x="1.15649" y="27.4592" width="6.40086" height="16.6252" stroke="#147BBE" stroke-width="1.5" stroke-linecap="round"/>
<rect x="7.55713" y="29.3591" width="3.2971" height="12.7414" stroke="#147BBE" stroke-width="1.5" stroke-linecap="round"/>
<circle cx="4.35699" cy="31.1473" r="1.00591" fill="#147BBE"/>
<path d="M11.418 30.2535C13.3621 28.4494 17.1569 24.3654 16.7836 22.4618C16.317 20.0824 20.3762 20.5489 20.4228 23.395C20.5783 24.9036 19.6296 28.574 19.6296 28.574H26.3949C26.3949 28.574 28.384 28.3207 28.4944 30.2535C28.6049 32.1864 26.3949 32.3532 26.3949 32.3532M26.3949 32.3532H23.0486M26.3949 32.3532C29.0881 32.3532 29.2167 35.9744 26.3949 35.9744M26.3949 35.9744H23.0486M26.3949 35.9744C29.4749 35.9744 29.0159 39.4685 26.3949 39.2162M26.3949 39.2162H23.0486M26.3949 39.2162C29.1593 39.4972 28.6534 42.2911 25.975 42.2911C23.2966 42.2911 14.7307 42.2911 14.7307 42.2911C14.1552 41.7934 12.6218 40.7981 11.0914 40.7981" stroke="#147BBE" stroke-width="1.5" stroke-linecap="round"/>
<circle cx="30.0414" cy="11.6771" r="10.2826" stroke="#147BBE" stroke-width="1.5" stroke-linecap="round"/>
<circle cx="26.5566" cy="9.32797" r="1.38828" fill="#147BBE"/>
<circle cx="33.4663" cy="9.32797" r="1.38828" fill="#147BBE"/>
<path d="M25.8011 14.7944C26.5774 17.5099 33.5394 18.1418 34.4786 14.7944" stroke="#147BBE" stroke-width="1.5" stroke-linecap="round"/>
</svg>
