<svg width="59" height="65" viewBox="0 0 59 65" fill="none" xmlns="http://www.w3.org/2000/svg">
<rect x="1" y="40.8574" width="7.61865" height="22.9829" stroke="black" stroke-width="2"/>
<rect x="10.6187" y="43.7124" width="2.95459" height="17.1467" stroke="black" stroke-width="2"/>
<circle cx="4.80945" cy="45.3998" r="1" stroke="black" stroke-width="1.02319"/>
<path d="M15.42 44.0566C18.3414 41.3456 24.0439 35.2084 23.483 32.3479C22.7817 28.7723 28.8815 29.4734 28.9516 33.7502C29.1853 36.0172 27.7597 41.5327 27.7597 41.5327H37.9259C37.9259 41.5327 40.915 41.1521 41.0809 44.0566C41.2469 46.9611 37.9259 47.2117 37.9259 47.2117M37.9259 47.2117H32.8974M37.9259 47.2117C41.973 47.2117 42.1663 52.6534 37.9259 52.6534M37.9259 52.6534H32.8974M37.9259 52.6534C42.5543 52.6534 41.8645 57.9041 37.9259 57.525M37.9259 57.525H32.8974M37.9259 57.525C42.0801 57.9472 41.3197 62.1456 37.2949 62.1456C33.2701 62.1456 20.3979 62.1456 20.3979 62.1456C19.5332 61.3977 17.2289 59.902 14.9292 59.902" stroke="black" stroke-width="2"/>
<circle cx="43.4059" cy="16.1407" r="14.4518" stroke="black" stroke-width="2"/>
<circle cx="38.1692" cy="12.6106" r="1.08618" stroke="black" stroke-width="2"/>
<circle cx="48.553" cy="12.6106" r="1.08618" stroke="black" stroke-width="2"/>
<path d="M37.0342 20.8252C38.2007 24.9057 48.6626 25.8553 50.0739 20.8252" stroke="black" stroke-width="2"/>
</svg>
