<svg width="48" height="50" viewBox="0 0 48 50" fill="none" xmlns="http://www.w3.org/2000/svg">
<ellipse cx="11.3746" cy="44.2969" rx="4.63119" ry="4.93365" stroke="#E19E26" stroke-width="1.5" stroke-linecap="round"/>
<ellipse cx="38.1143" cy="44.2969" rx="4.63119" ry="4.93365" stroke="#E19E26" stroke-width="1.5" stroke-linecap="round"/>
<path d="M5.76596 44.2502C4.24281 44.432 1.16924 44.182 1.0602 41.7268C0.963749 39.5549 1.00239 36.5825 1.04405 34.9341C1.05303 34.5787 1.2507 34.2556 1.57953 34.1206C3.20955 33.4515 6.38159 32.7141 7.11119 32.1791C8.08964 31.4615 21.4386 20.7616 34.295 30.6924C35.4613 31.5932 36.8732 32.1753 38.2997 32.5447C40.3196 33.0678 42.6714 34.0491 44.3457 34.8092C45.7118 35.4294 46.5484 36.8054 46.5484 38.3057V39.8692C46.5484 41.3615 46.2368 43.0345 44.8351 43.5468C44.3355 43.7295 43.709 43.8349 42.9339 43.7728" stroke="#E19E26" stroke-width="1.5" stroke-linecap="round"/>
<path d="M32.9636 44.2922L16.4041 44.2966" stroke="#E19E26" stroke-width="1.5" stroke-linecap="round"/>
<path d="M11.2481 34.4791H20.6286V30.4949C18.7445 30.5997 14.1103 31.5434 10.6467 34.4791" stroke="#E19E26" stroke-width="1.5" stroke-linecap="round"/>
<path d="M33.1547 34.4796H23.7742V30.4954C25.6584 30.6002 30.2925 31.5439 33.7561 34.4796" stroke="#E19E26" stroke-width="1.5" stroke-linecap="round"/>
<path d="M16.8985 17.3317C17.0318 17.2162 17.2385 17.3173 17.2292 17.4934L17.1005 19.9394C17.0974 19.9974 17.1197 20.0538 17.1615 20.094L19.0589 21.9198C19.1989 22.0545 19.084 22.2896 18.8917 22.2618L16.2855 21.8859C16.2281 21.8776 16.1699 21.8947 16.126 21.9327L14.2748 23.5366C14.1415 23.6521 13.9348 23.5511 13.9441 23.3749L14.0728 20.9289C14.0758 20.871 14.0536 20.8146 14.0117 20.7743L12.1144 18.9485C11.9744 18.8138 12.0893 18.5787 12.2816 18.6065L14.8878 18.9824C14.9452 18.9907 15.0034 18.9736 15.0473 18.9356L16.8985 17.3317Z" stroke="#E19E26" stroke-width="1.5" stroke-linecap="round"/>
<path d="M39.7489 8.68816C39.8821 8.57267 40.0888 8.67371 40.0795 8.84983L39.9508 11.2958C39.9478 11.3538 39.9701 11.4102 40.0119 11.4505L41.9092 13.2762C42.0493 13.4109 41.9343 13.646 41.742 13.6183L39.1359 13.2424C39.0784 13.2341 39.0202 13.2512 38.9763 13.2892L37.1251 14.8931C36.9918 15.0085 36.7852 14.9075 36.7944 14.7314L36.9231 12.2854C36.9262 12.2274 36.9039 12.171 36.8621 12.1308L34.9647 10.305C34.8247 10.1703 34.9396 9.93519 35.1319 9.96293L37.7381 10.3389C37.7956 10.3471 37.8538 10.3301 37.8976 10.2921L39.7489 8.68816Z" stroke="#E19E26" stroke-width="1.5" stroke-linecap="round"/>
<path d="M8.46338 10.9023V15.9511" stroke="#E19E26" stroke-width="1.5" stroke-linecap="round"/>
<path d="M10.9875 13.427L5.93875 13.427" stroke="#E19E26" stroke-width="1.5" stroke-linecap="round"/>
<path d="M29.4629 18.4221V23.4709" stroke="#E19E26" stroke-width="1.5" stroke-linecap="round"/>
<path d="M31.9871 20.9468L26.9383 20.9468" stroke="#E19E26" stroke-width="1.5" stroke-linecap="round"/>
<path d="M39.1948 24.4932V29.542" stroke="#E19E26" stroke-width="1.5" stroke-linecap="round"/>
<path d="M41.719 27.0173L36.6702 27.0173" stroke="#E19E26" stroke-width="1.5" stroke-linecap="round"/>
<path d="M5.29761 20.946V24.493" stroke="#E19E26" stroke-width="1.5" stroke-linecap="round"/>
<path d="M7.07129 22.7195L3.52433 22.7195" stroke="#E19E26" stroke-width="1.5" stroke-linecap="round"/>
<path d="M19.9363 9.50501L21.4311 11.2035C21.8076 11.6313 22.4649 11.6585 22.8754 11.2632L27.4869 6.82251" stroke="#E19E26" stroke-width="1.5" stroke-linecap="round"/>
<path d="M26.6165 16.7323C20.9665 18.3749 11.1693 13.5256 17.5835 3.3186" stroke="#E19E26" stroke-width="1.5" stroke-linecap="round"/>
<path d="M20.9149 1.43515C25.173 -0.428236 35.5639 3.62931 29.948 14.8489" stroke="#E19E26" stroke-width="1.5" stroke-linecap="round"/>
<path d="M14.6809 2.88613L17.3928 2.67928C17.9175 2.63925 18.3835 3.01285 18.4586 3.53379L18.8502 6.25241" stroke="#E19E26" stroke-width="1.5" stroke-linecap="round"/>
<path d="M32.8503 15.2811L30.1385 15.488C29.6137 15.528 29.1477 15.1544 29.0727 14.6334L28.681 11.9148" stroke="#E19E26" stroke-width="1.5" stroke-linecap="round"/>
</svg>
