<svg width="110" height="95" viewBox="0 0 110 95" fill="none" xmlns="http://www.w3.org/2000/svg">
<path d="M37.7886 19.4102L18.6012 19.9456C16.4789 20.0112 14.6004 21.2961 13.9387 23.2009C11.8881 29.1043 11.7144 30.961 8.771 38.7552" stroke="black" stroke-width="3"/>
<path d="M17.1355 66.8062C69.2639 66.8062 10.2395 66.8033 8.06756 66.5273C5.93858 66.2561 4.71104 65.7478 3.82089 64.8949C2.93074 64.042 2.41562 62.8805 2.17463 60.8788C1.92837 58.8362 1.98862 56.1483 2.07748 52.373L2.09029 51.835C2.1671 48.5829 2.22434 46.2784 2.50825 44.5118C2.78539 42.7862 3.25532 41.7519 4.031 40.9597C4.80894 40.1647 5.86176 39.6394 7.65261 39.2348C9.48864 38.8203 11.9076 38.5718 15.3243 38.2251C24.0353 37.3411 35.9062 36.7888 39.7229 36.8227" stroke="black" stroke-width="3"/>
<path d="M2.96729 59.0684L37.7884 59.0684" stroke="black" stroke-width="3" stroke-linecap="round"/>
<path d="M22.3125 37.7881L28.116 48.4279" stroke="black" stroke-width="3" stroke-linecap="round"/>
<path d="M39.723 48.4277C34.5359 48.4277 24.8305 48.4277 24.8305 48.4277C23.5027 48.4277 22.3532 49.424 22.0668 50.8265C21.6123 53.0509 20.9258 56.4086 20.3779 59.0675" stroke="black" stroke-width="3"/>
<path d="M69.7584 87.1183C61.0363 87.1183 52.6099 87.1183 46.7491 87.1183C42.3308 87.1183 38.7554 83.5366 38.7554 79.1183V10C38.7554 5.58172 42.3371 2 46.7554 2H86.8561C91.2744 2 94.8561 5.57888 94.8561 9.99716C94.8561 20.5048 94.8561 38.2351 94.8561 43.4293" stroke="black" stroke-width="3" stroke-linecap="round"/>
<path d="M61.6147 81.315C55.4457 81.315 51.2437 81.315 48.5542 81.315C46.3451 81.315 44.5588 79.5241 44.5588 77.315V11.8037C44.5588 9.59457 46.3497 7.80371 48.5588 7.80371H85.0525C87.2616 7.80371 89.0525 9.58435 89.0525 11.7935C89.0525 19.5431 89.0525 36.3049 89.0525 41.2513" stroke="black" stroke-width="3" stroke-linecap="round"/>
<path d="M78.2552 92.9218C78.2552 92.9218 74.6884 86.1889 74.2085 81.9025C73.7287 77.6161 72.7689 69.778 74.9283 67.2062V67.2062C77.0649 64.6616 80.3267 68.0628 80.3267 71.3855V76.3914V49.7956C80.3267 48.9141 80.3658 47.9963 80.8265 47.2448C81.4191 46.278 82.4845 45.5264 84.2861 45.5264C86.4461 45.5264 87.8843 46.8094 87.8843 48.4685C87.8843 50.1276 87.8843 57.8374 87.8843 57.8374M87.8843 67.2062V57.8374M87.8843 57.8374C88.7908 56.7949 90.1248 55.9719 91.7068 56.193C93.915 56.5016 94.7221 59.0981 94.7221 61.3278V61.3278M94.7221 69.0433V61.3278M94.7221 61.3278C95.8463 60.1801 97.4071 58.8733 99.2691 59.5406C101.058 60.1816 101.56 62.3669 101.56 64.267V64.267M101.56 70.1455V64.267M101.56 64.267C102.523 63.2835 103.808 62.1118 105.327 62.2268C107.778 62.4123 108.398 65.6025 108.398 68.0605V92.1899" stroke="black" stroke-width="3" stroke-linecap="round"/>
<path d="M63.9038 13.2979H70.6746" stroke="black" stroke-width="3" stroke-linecap="round"/>
<path d="M59.6978 39.3643L63.0808 43.4754C63.4835 43.9648 64.234 43.9609 64.6317 43.4674L77.1083 27.9805" stroke="black" stroke-width="3" stroke-linecap="round"/>
<ellipse cx="67.4359" cy="36.2025" rx="12.5743" ry="13.0579" stroke="black" stroke-width="3" stroke-linecap="round"/>
</svg>
