<svg width="31" height="27" viewBox="0 0 31 27" fill="none" xmlns="http://www.w3.org/2000/svg">
<path d="M14.0945 0.0701256C11.1366 0.315884 8.04812 1.56072 5.72774 3.45063C1.81732 6.64675 -0.364604 11.679 0.0501322 16.5576C0.372985 20.3299 1.80191 23.5185 4.34476 26.123C5.00557 26.7992 5.18997 26.9528 5.37437 26.9528C5.79697 26.9528 6.18873 26.6378 6.97226 25.6466C7.15666 25.4162 7.84044 24.6862 8.47797 24.0333C9.12335 23.3803 9.69197 22.7425 9.73036 22.6273C9.94559 22.0663 9.71494 21.4133 9.20014 21.1213C8.88515 20.9445 8.37035 20.9061 8.10162 21.0445C8.00942 21.0908 7.46378 21.5977 6.89548 22.1585L5.85046 23.1956L5.68904 23.0188C5.37405 22.6808 4.67485 21.5666 4.33689 20.8598C3.75287 19.6691 3.3611 18.355 3.1767 17.0337L3.12289 16.6728L4.56723 16.6498C6.18055 16.6193 6.37282 16.5576 6.71833 16.0507C6.99492 15.6435 7.01789 15.3361 6.81052 14.9138C6.4647 14.23 6.16513 14.1303 4.33658 14.1224H3.13108L3.17733 13.792C3.26198 13.185 3.66916 11.6255 3.8995 11.0106C4.20694 10.2192 4.82149 9.06688 5.27461 8.44446C5.46656 8.16787 5.65096 7.90669 5.6818 7.8683C5.71264 7.82236 6.14279 8.19084 6.71895 8.75945C7.37976 9.41239 7.77908 9.75066 7.93296 9.78119C8.06354 9.81202 8.202 9.84254 8.25581 9.85796C8.44776 9.91932 8.93959 9.71982 9.18535 9.48917C9.47736 9.20502 9.6155 8.78242 9.53872 8.37523C9.50033 8.14458 9.30838 7.90669 8.50156 7.092C7.95593 6.53881 7.51035 6.0624 7.51035 6.02401C7.51035 5.86259 8.98553 4.85627 9.8921 4.41069C11.006 3.84995 12.4737 3.37354 13.4646 3.2505C13.6798 3.21967 13.9101 3.18128 13.9794 3.16586C14.0945 3.13502 14.1099 3.26561 14.1329 4.58722C14.1559 5.92395 14.1713 6.0624 14.3173 6.26222C14.8859 7.02278 15.9615 7.01523 16.3995 6.23925C16.5609 5.96265 16.5763 5.84748 16.5763 4.53373V3.12778L16.9451 3.17372C18.6123 3.41193 20.3332 3.99596 21.6702 4.79491C22.3465 5.20209 23.0224 5.69392 23.0302 5.78612C23.0302 5.83238 22.6306 6.26254 22.1391 6.7465C21.1557 7.72985 21.0327 7.90669 21.0327 8.35982C21.0327 9.18205 21.8011 9.75035 22.5922 9.51214C22.8458 9.44291 23.1379 9.19715 23.8906 8.45201L24.8663 7.49164L25.0199 7.67603C25.7805 8.57505 26.7254 10.3035 27.1326 11.5484C27.3708 12.286 27.632 13.4537 27.6395 13.792V14.0377L26.1644 14.0607C24.7509 14.0837 24.6662 14.0912 24.428 14.2605C23.6829 14.7983 23.7672 15.9431 24.597 16.3427C24.889 16.4887 25.0655 16.5041 26.3258 16.5041H27.732L27.6782 16.9038C27.3862 19.1779 26.5105 21.2601 25.0662 23.1421C24.9585 23.2881 24.8972 23.2422 23.8906 22.251C23.0762 21.4441 22.7612 21.183 22.5151 21.1141C22.062 20.9759 21.6853 21.0678 21.3244 21.4136C21.0557 21.6594 21.0094 21.7594 20.971 22.0974C20.9556 22.3126 20.9632 22.5814 20.9865 22.6965C21.0248 22.8271 21.6778 23.5572 22.7153 24.6019C23.6294 25.5393 24.4441 26.392 24.5208 26.5072C24.6977 26.7838 25.2584 27.0525 25.512 26.9912C25.7578 26.9298 27.1483 25.5006 27.7402 24.7095C30.8133 20.5914 31.6585 15.3285 30.0144 10.4807C28.0398 4.65708 22.7769 0.561954 16.6154 0.0625706C15.5313 -0.0220757 15.2009 -0.0220737 14.0945 0.0701256Z" fill="url(#paint0_linear_1_1098)"/>
<path d="M20.4551 10.2116C20.3705 10.25 19.5945 10.5726 18.7263 10.9263C15.9528 12.0556 14.1626 12.9543 13.5481 13.5154C12.9565 14.0531 12.7029 14.6523 12.6953 15.5053C12.6953 16.0891 12.7183 16.2121 12.9411 16.6655C13.2406 17.2725 13.7246 17.7411 14.3316 18.0255C14.6928 18.1945 14.8772 18.2329 15.4226 18.2329C16.0141 18.2329 16.1293 18.2099 16.5903 17.9793C17.3125 17.6259 17.6737 17.1879 18.3651 15.8357C19.0413 14.5066 20.501 11.1415 20.7544 10.2963C20.816 10.1116 20.7238 10.081 20.4551 10.2116ZM16.0145 14.6293C16.2911 14.8061 16.4446 15.1057 16.4446 15.4666C16.4446 16.2502 15.6532 16.7344 14.9694 16.3657C14.4546 16.0891 14.2781 15.4361 14.6006 14.9597C14.931 14.4603 15.5381 14.3219 16.0145 14.6293Z" fill="url(#paint1_linear_1_1098)"/>
<defs>
<linearGradient id="paint0_linear_1_1098" x1="-2.20275" y1="14.5385" x2="33.0409" y2="14.4412" gradientUnits="userSpaceOnUse">
<stop stop-color="#C67B10"/>
<stop offset="0.492322" stop-color="#C3810B"/>
<stop offset="1" stop-color="#FFD646"/>
</linearGradient>
<linearGradient id="paint1_linear_1_1098" x1="12.1184" y1="14.4939" x2="21.3496" y2="14.4717" gradientUnits="userSpaceOnUse">
<stop stop-color="#C67B10"/>
<stop offset="0.492322" stop-color="#C3810B"/>
<stop offset="1" stop-color="#FFD646"/>
</linearGradient>
</defs>
</svg>
