<svg width="66" height="68" viewBox="0 0 66 68" fill="none" xmlns="http://www.w3.org/2000/svg">
<path d="M46.0188 14.8904C44.3692 9.02206 44.3291 8.55099 43.1614 4.29583C42.7288 2.72221 41.3172 1.61644 39.6863 1.56297L27.2984 1.1582L14.7345 1.56885C13.1977 1.61912 11.8374 2.60457 11.3584 4.06538C9.87348 8.5927 10.1606 9.14398 8.0293 15.1214" stroke="black" stroke-width="2"/>
<path d="M53.2608 27.4518V26.9915C53.2608 21.6482 53.2608 18.9768 51.7214 17.2914C50.182 15.6066 47.4191 15.3563 41.893 14.8564C35.9396 14.3174 30.8509 13.7025 27.5491 13.6726C24.6954 13.6469 17.2288 14.3361 10.9835 14.9735C6.64064 15.4168 4.46922 15.6381 3.01857 17.0011C2.81913 17.1882 2.62877 17.3941 2.45767 17.6074C1.21235 19.1597 1.16048 21.3621 1.05675 25.7675C0.936441 30.8659 0.876554 33.4148 2.29512 35.1125C2.49028 35.3456 2.7031 35.5638 2.93141 35.7643C4.59541 37.223 7.1454 37.223 12.2449 37.223H15.5327" stroke="black" stroke-width="2"/>
<path d="M2.7168 30.4854H22.9649" stroke="black" stroke-width="2" stroke-linecap="round"/>
<path d="M16.9961 14.7002L20.2733 20.8477" stroke="black" stroke-width="2" stroke-linecap="round"/>
<path d="M37.0838 14.7002L33.8066 20.8477" stroke="black" stroke-width="2" stroke-linecap="round"/>
<path d="M37.3844 26.3074C37.1095 25.1321 36.893 24.2066 36.7262 23.4922C36.4433 22.2822 35.3648 21.4277 34.1222 21.4277H20.0542C18.7992 21.4277 17.7138 22.2982 17.4432 23.5238C17.0138 25.4674 16.3652 28.4013 15.8477 30.7246" stroke="black" stroke-width="2"/>
<path d="M1.1084 29.3008V38.8703C1.1084 40.0515 2.06605 41.0091 3.24721 41.0091H8.65465C9.8358 41.0091 10.7935 40.0515 10.7935 38.8703V30.4985" stroke="black" stroke-width="2"/>
<path d="M44.7646 11.4756H49.1321C50.3133 11.4756 51.2709 12.4332 51.2709 13.6144V15.1864C51.2709 15.8184 50.8405 16.3686 50.2272 16.521" stroke="black" stroke-width="2"/>
<path d="M8.97944 11.4756H4.61146C3.43031 11.4756 2.47266 12.4332 2.47266 13.6144V15.7682C2.47266 16.3093 3.00308 16.6916 3.51639 16.5205" stroke="black" stroke-width="2"/>
<path d="M8.97011 21.1938H9.32515C10.4523 21.1938 11.3656 22.1077 11.3656 23.2343C11.3656 24.3614 10.4518 25.2747 9.32515 25.2747H8.97011C7.84296 25.2747 6.92969 24.3609 6.92969 23.2343C6.92969 22.1077 7.84349 21.1938 8.97011 21.1938Z" stroke="black" stroke-width="2"/>
<path d="M44.7211 21.1938H45.0761C46.2033 21.1938 47.1166 22.1077 47.1166 23.2343C47.1166 24.3614 46.2027 25.2747 45.0761 25.2747H44.7211C43.5939 25.2747 42.6807 24.3609 42.6807 23.2343C42.6801 22.1077 43.5939 21.1938 44.7211 21.1938Z" stroke="black" stroke-width="2"/>
<path d="M58.2249 40.0769C56.5753 34.2086 56.5352 33.7375 55.3669 29.4824C54.9348 27.9087 53.5232 26.803 51.8924 26.7495L39.5044 26.3447L26.9405 26.7554C25.4038 26.8056 24.0435 27.7911 23.5644 29.2519C22.0795 33.7792 22.3667 34.3305 20.2354 40.3079" stroke="black" stroke-width="2"/>
<path d="M53.7521 61.5026H24.8675C22.0079 61.5026 19.9712 61.5004 18.4291 61.2913C16.9175 61.086 16.046 60.701 15.4139 60.0551C14.7819 59.4092 14.4162 58.5296 14.2451 57.0137C14.0702 55.4668 14.113 53.4312 14.1761 50.5722L14.1852 50.1647C14.2397 47.7019 14.2804 45.9566 14.482 44.6188C14.6787 43.312 15.0124 42.5287 15.5631 41.9287C16.1155 41.3266 16.863 40.9288 18.1345 40.6224C19.4381 40.3086 21.1556 40.1204 23.5815 39.8578C29.7664 39.1884 36.8833 38.497 39.5932 38.5227C41.909 38.5451 45.1182 38.8809 48.9574 39.283C50.5583 39.4504 52.2693 39.6295 54.0708 39.8022C56.8058 40.0642 58.7628 40.2535 60.2311 40.5711C61.6828 40.885 62.4918 41.2935 63.0372 41.8795C63.0479 41.8908 63.057 41.9009 63.0677 41.9127C63.613 42.5099 63.9504 43.3291 64.144 44.738C64.3402 46.17 64.3691 48.0516 64.4076 50.6909C64.4488 53.512 64.4755 55.5203 64.2932 57.0463C64.1141 58.5424 63.7494 59.4119 63.1265 60.0503C63.1152 60.0621 63.104 60.0738 63.0922 60.0851C62.4629 60.7176 61.5988 61.0946 60.1054 61.2951C58.582 61.5004 56.5737 61.5026 53.7521 61.5026Z" stroke="black" stroke-width="2"/>
<path d="M14.9238 55.6719H63.9154" stroke="black" stroke-width="2" stroke-linecap="round"/>
<path d="M29.2021 39.3589L32.4793 46.0346" stroke="black" stroke-width="2" stroke-linecap="round"/>
<path d="M49.2899 39.3589L46.0127 46.0346" stroke="black" stroke-width="2" stroke-linecap="round"/>
<path d="M50.6241 55.9111L48.9318 48.6787C48.6489 47.4698 47.5704 46.6143 46.3288 46.6143H32.2592C31.0048 46.6143 29.9188 47.4848 29.6483 48.7103C29.2189 50.6539 28.5703 53.5878 28.0527 55.9111" stroke="black" stroke-width="2"/>
<path d="M14.123 55.0601V64.0575C14.123 65.2386 15.0807 66.1963 16.2619 66.1963H21.8522C23.0333 66.1963 23.991 65.2386 23.991 64.0575V55.0601" stroke="black" stroke-width="2"/>
<path d="M54.6865 55.0667V64.0572C54.6865 65.2384 55.6442 66.196 56.8253 66.196H62.2632C63.4444 66.196 64.4021 65.2384 64.4021 64.0572V54.7817" stroke="black" stroke-width="2"/>
<path d="M57.1396 36.3896H61.5076C62.6888 36.3896 63.6464 37.3473 63.6464 38.5285V40.6822C63.6464 41.2234 63.116 41.6057 62.6022 41.4346" stroke="black" stroke-width="2"/>
<path d="M21.3539 36.3896H16.9865C15.8053 36.3896 14.8477 37.3473 14.8477 38.5285V40.6822C14.8477 41.2234 15.3781 41.6057 15.8914 41.4346" stroke="black" stroke-width="2"/>
<path d="M21.1762 46.3804H21.5312C22.6584 46.3804 23.5716 47.2942 23.5716 48.4208C23.5716 49.5479 22.6578 50.4612 21.5312 50.4612H21.1762C20.049 50.4612 19.1357 49.5474 19.1357 48.4208C19.1357 47.2942 20.049 46.3804 21.1762 46.3804Z" stroke="black" stroke-width="2"/>
<path d="M56.9271 46.3804H57.2822C58.4093 46.3804 59.3226 47.2942 59.3226 48.4208C59.3226 49.5479 58.4088 50.4612 57.2822 50.4612H56.9271C55.8 50.4612 54.8867 49.5474 54.8867 48.4208C54.8867 47.2942 55.8005 46.3804 56.9271 46.3804Z" stroke="black" stroke-width="2"/>
</svg>
