<svg width="51" height="31" viewBox="0 0 51 31" fill="none" xmlns="http://www.w3.org/2000/svg">
<rect x="35.6201" y="17.7468" width="14.0604" height="3.43115" rx="1.71558" stroke="#E19E26"/>
<rect x="35.6201" y="20.8208" width="14.0604" height="3.43115" rx="1.71558" stroke="#E19E26"/>
<rect x="35.6201" y="23.8679" width="14.0604" height="3.43115" rx="1.71558" stroke="#E19E26"/>
<rect x="35.6201" y="26.9148" width="14.0604" height="3.43115" rx="1.71558" stroke="#E19E26"/>
<path d="M20.8218 10.2131H26.0241" stroke="#E19E26" stroke-linecap="round"/>
<path d="M20.8218 12.2441H26.0241" stroke="#E19E26" stroke-linecap="round"/>
<path d="M20.5903 10.2154C25.9279 9.98869 25.4796 14.7146 20.7524 14.0463C20.5451 14.017 20.4082 14.3203 20.5786 14.4418V14.4418C20.5864 14.4473 20.5938 14.4535 20.6006 14.4602L24.1096 17.8775" stroke="#E19E26" stroke-linecap="round"/>
<circle cx="23.4495" cy="13.5979" r="7.16284" stroke="#E19E26"/>
<path d="M10.4605 22.6298L10.0069 22.8402L10.1413 23.1298L10.4605 23.1298L10.4605 22.6298ZM4.42535 18.2114L3.92535 18.2109L3.92506 18.5417L4.22939 18.6714L4.42535 18.2114ZM4.43376 8.88258L4.35898 8.3882L3.93415 8.45246L3.93376 8.88213L4.43376 8.88258ZM10.4767 4.5741L10.4787 4.0741L10.1683 4.07288L10.0295 4.35051L10.4767 4.5741ZM36.8217 4.67776L37.3085 4.56343L37.2182 4.17932L36.8237 4.17777L36.8217 4.67776ZM42.4803 9.99227L42.9803 9.99227L42.9803 9.60674L42.6075 9.5087L42.4803 9.99227ZM41.9803 17.2413C41.9803 17.5174 42.2042 17.7413 42.4803 17.7413C42.7565 17.7413 42.9803 17.5174 42.9803 17.2413L41.9803 17.2413ZM35.853 22.1298L10.4605 22.1298L10.4605 23.1298L35.853 23.1298L35.853 22.1298ZM10.9141 22.4193C10.4544 21.4285 9.56642 20.5614 8.47829 19.8029C7.3836 19.0398 6.0437 18.3573 4.62131 17.7514L4.22939 18.6714C5.61776 19.2628 6.88929 19.9142 7.90643 20.6232C8.93011 21.3368 9.65436 22.0802 10.0069 22.8402L10.9141 22.4193ZM4.92535 18.2118L4.93376 8.88303L3.93376 8.88213L3.92535 18.2109L4.92535 18.2118ZM4.50854 9.37695C6.48628 9.07779 9.47616 7.69363 10.924 4.79768L10.0295 4.35051C8.76704 6.87575 6.11477 8.12261 4.35898 8.3882L4.50854 9.37695ZM10.4748 5.0741L36.8197 5.17776L36.8237 4.17777L10.4787 4.0741L10.4748 5.0741ZM36.3349 4.7921C36.5484 5.70078 36.9062 6.83493 37.804 7.8904C38.7052 8.94965 40.1128 9.88674 42.3532 10.4758L42.6075 9.5087C40.5262 8.96145 39.3106 8.118 38.5657 7.24244C37.8177 6.3631 37.5069 5.40817 37.3085 4.56343L36.3349 4.7921ZM41.9803 9.99227L41.9803 17.2413L42.9803 17.2413L42.9803 9.99227L41.9803 9.99227Z" fill="#E19E26"/>
<path d="M35.7431 26.1731H1.5C1.22386 26.1731 1 25.9492 1 25.6731V1.5C1 1.22386 1.22386 1 1.5 1H45.3989C45.6751 1 45.8989 1.22386 45.8989 1.5V17.2535" stroke="#E19E26" stroke-linecap="round"/>
</svg>
