<svg width="98" height="82" viewBox="0 0 98 82" fill="none" xmlns="http://www.w3.org/2000/svg">
    <ellipse cx="44.4745" cy="67.621" rx="6.84948" ry="7.29683" stroke="#000000" stroke-width="3"
        stroke-linecap="round" />
    <ellipse cx="84.0223" cy="67.621" rx="6.84948" ry="7.29683" stroke="#000000" stroke-width="3"
        stroke-linecap="round" />
    <path
        d="M36.1797 67.5529C33.9269 67.8219 29.3812 67.4521 29.2199 63.8209C29.0717 60.4839 29.1391 55.8691 29.2032 53.4993C29.2128 53.144 29.4092 52.8216 29.7347 52.6788C32.0534 51.6614 37.051 50.5199 38.1693 49.6999C39.6383 48.6226 59.9623 32.3303 79.2384 48.1905C80.3763 49.1268 81.7855 49.6889 83.2281 49.9897C86.8563 50.7462 91.579 52.804 94.3008 54.0798C95.6593 54.7165 96.4965 56.0903 96.4965 57.5906V62.1593C96.4965 63.6517 96.2009 65.2431 94.9372 66.0369C94.0976 66.5643 92.872 66.9847 91.1507 66.847"
        stroke="#000000" stroke-width="3" stroke-linecap="round" />
    <path d="M76.4039 67.6145L51.9126 67.6211" stroke="#000000" stroke-width="3" stroke-linecap="round" />
    <path d="M44.2881 53.1016H58.1618V47.209C55.3752 47.3641 48.5213 48.7598 43.3987 53.1016" stroke="#000000"
        stroke-width="3" stroke-linecap="round" />
    <path d="M76.6872 53.1016H62.8135V47.209C65.6002 47.3641 72.4541 48.7598 77.5767 53.1016" stroke="#000000"
        stroke-width="3" stroke-linecap="round" />
    <path
        d="M40.9631 80.2988H3C2.44771 80.2988 2 79.8511 2 79.2988V3C2 2.44772 2.44772 2 3 2H41.6408C42.1931 2 42.6408 2.44772 42.6408 3V37.4211"
        stroke="#000000" stroke-width="3" stroke-linecap="round" />
    <path d="M12.2534 78.9942V12.6943C12.2534 12.1421 12.7011 11.6943 13.2534 11.6943H36.8615" stroke="#000000"
        stroke-width="3" stroke-linecap="round" />
    <path
        d="M81.3118 19.6304L62.0756 20.0096C61.8046 20.0149 61.5826 19.8014 61.5317 19.5351C60.5892 14.6009 48.9219 13.6076 48.9219 22.9172C48.9219 31.9648 59.7411 31.3607 61.2526 25.844C61.3164 25.6111 61.521 25.436 61.7625 25.436H66.9319C67.1233 25.436 67.298 25.5454 67.3816 25.7177L68.8529 28.7482C69.0247 29.102 69.5187 29.1282 69.7269 28.7946L71.6847 25.6575C71.8741 25.3541 72.3115 25.3419 72.5176 25.6342L74.3671 28.2581C74.5595 28.531 74.9603 28.5423 75.1677 28.2805L77.2431 25.6608C77.3534 25.5216 77.5292 25.4513 77.7051 25.4762L81.5735 26.0233C81.7251 26.0448 81.8782 25.9956 81.9889 25.8898L85.2451 22.7789C85.4795 22.5549 85.4421 22.1706 85.169 21.996L81.5909 19.7091C81.5077 19.6559 81.4106 19.6285 81.3118 19.6304Z"
        stroke="#000000" stroke-width="3" stroke-linecap="round" />
    <circle cx="54.7064" cy="22.9418" r="2.01113" fill="black" />
</svg>