<svg width="45" height="46" viewBox="0 0 45 46" fill="none" xmlns="http://www.w3.org/2000/svg">
<path d="M31.0118 10.1545C29.9121 6.2424 29.8854 5.92836 29.1069 3.09168C28.8185 2.04263 27.8774 1.30548 26.7903 1.26984L18.5319 1L10.1562 1.27376C9.13178 1.30727 8.22496 1.96421 7.90557 2.93805C6.9157 5.95616 7.10711 6.32367 5.68628 10.3085" stroke="#E19E26" stroke-width="1.5"/>
<path d="M35.8393 18.5286V18.2217C35.8393 14.6596 35.8393 12.8788 34.8131 11.7552C33.7869 10.6321 31.9451 10.4652 28.2611 10.1319C24.2923 9.77264 20.8999 9.36271 18.6988 9.34275C16.7964 9.32564 11.8188 9.78511 7.65544 10.21C4.7603 10.5055 3.31273 10.6531 2.34567 11.5617C2.21271 11.6864 2.08581 11.8237 1.97175 11.9659C1.14156 13.0007 1.10698 14.4689 1.03783 17.4058C0.957629 20.8046 0.917706 22.5038 1.86338 23.6356C1.99349 23.791 2.13536 23.9364 2.28757 24.0701C3.39686 25.0425 5.0968 25.0425 8.49632 25.0425H10.6882" stroke="#E19E26" stroke-width="1.5"/>
<path d="M2.14478 20.551H15.6431" stroke="#E19E26" stroke-width="1.5" stroke-linecap="round"/>
<path d="M11.6636 10.0276L13.8483 14.1258" stroke="#E19E26" stroke-width="1.5" stroke-linecap="round"/>
<path d="M25.0548 10.0276L22.8701 14.1258" stroke="#E19E26" stroke-width="1.5" stroke-linecap="round"/>
<path d="M25.255 17.7657C25.0718 16.9822 24.9275 16.3652 24.8162 15.889C24.6277 15.0823 23.9087 14.5127 23.0803 14.5127H13.7019C12.8653 14.5127 12.1417 15.093 11.9614 15.91C11.6751 17.2057 11.2428 19.1616 10.8977 20.7104" stroke="#E19E26" stroke-width="1.5"/>
<path d="M1.07227 19.7615V26.141C1.07227 26.9284 1.71068 27.5668 2.49809 27.5668H6.10293C6.89034 27.5668 7.52875 26.9284 7.52875 26.141V20.5599" stroke="#E19E26" stroke-width="1.5"/>
<path d="M30.1753 7.87793H33.0868C33.8742 7.87793 34.5126 8.51634 34.5126 9.30375V10.3517C34.5126 10.7731 34.2257 11.1399 33.8168 11.2414" stroke="#E19E26" stroke-width="1.5"/>
<path d="M6.3194 7.87793H3.40751C2.6201 7.87793 1.98169 8.51634 1.98169 9.30375V10.7396C1.98169 11.1003 2.33529 11.3552 2.67749 11.2411" stroke="#E19E26" stroke-width="1.5"/>
<path d="M6.31312 14.3564H6.5498C7.30121 14.3564 7.91004 14.9656 7.91004 15.7167C7.91004 16.4681 7.30086 17.0769 6.5498 17.0769H6.31312C5.56171 17.0769 4.95288 16.4677 4.95288 15.7167C4.95288 14.9656 5.56206 14.3564 6.31312 14.3564Z" stroke="#E19E26" stroke-width="1.5"/>
<path d="M30.1466 14.3564H30.3833C31.1347 14.3564 31.7435 14.9656 31.7435 15.7167C31.7435 16.4681 31.1344 17.0769 30.3833 17.0769H30.1466C29.3952 17.0769 28.7864 16.4677 28.7864 15.7167C28.786 14.9656 29.3952 14.3564 30.1466 14.3564Z" stroke="#E19E26" stroke-width="1.5"/>
<path d="M39.1487 26.945C38.0491 23.0329 38.0223 22.7189 37.2435 19.8822C36.9555 18.8332 36.0144 18.096 34.9272 18.0604L26.6688 17.7905L18.2932 18.0643C17.2687 18.0978 16.3619 18.7547 16.0425 19.7286C15.0527 22.7467 15.2441 23.1142 13.8232 27.099" stroke="#E19E26" stroke-width="1.5"/>
<path d="M36.1668 41.2281H16.9111C15.0048 41.2281 13.647 41.2266 12.619 41.0873C11.6113 40.9504 11.0303 40.6937 10.6089 40.2632C10.1876 39.8326 9.94379 39.2462 9.82973 38.2356C9.71317 37.2044 9.74168 35.8474 9.78375 33.9414L9.78981 33.6698C9.82616 32.0279 9.85325 30.8645 9.98764 29.9726C10.1188 29.1014 10.3412 28.5792 10.7084 28.1793C11.0766 27.7779 11.5749 27.5127 12.4226 27.3085C13.2916 27.0992 14.4366 26.9738 16.0538 26.7987C20.1769 26.3525 24.9214 25.8916 26.7279 25.9087C28.2717 25.9236 30.4111 26.1475 32.9705 26.4155C34.0377 26.5271 35.1784 26.6465 36.3793 26.7617C38.2026 26.9363 39.5072 27.0625 40.486 27.2742C41.4538 27.4835 41.9931 27.7558 42.3567 28.1465C42.3638 28.154 42.3699 28.1608 42.377 28.1686C42.7406 28.5668 42.9655 29.1128 43.0946 30.0521C43.2254 31.0067 43.2446 32.2611 43.2703 34.0205C43.2977 35.9012 43.3156 37.24 43.194 38.2574C43.0746 39.2547 42.8315 39.8343 42.4162 40.2599C42.4087 40.2678 42.4013 40.2756 42.3934 40.2831C41.9739 40.7048 41.3978 40.9561 40.4022 41.0898C39.3867 41.2267 38.0479 41.2281 36.1668 41.2281Z" stroke="#E19E26" stroke-width="1.5"/>
<path d="M10.2822 37.3411H42.9421" stroke="#E19E26" stroke-width="1.5" stroke-linecap="round"/>
<path d="M19.8005 26.4661L21.9853 30.9164" stroke="#E19E26" stroke-width="1.5" stroke-linecap="round"/>
<path d="M33.1923 26.4661L31.0076 30.9164" stroke="#E19E26" stroke-width="1.5" stroke-linecap="round"/>
<path d="M34.0817 37.5007L32.9536 32.6793C32.765 31.8733 32.046 31.303 31.2183 31.303H21.8389C21.0027 31.303 20.2787 31.8833 20.0983 32.7003C19.8121 33.996 19.3797 35.9519 19.0347 37.5007" stroke="#E19E26" stroke-width="1.5"/>
<path d="M9.74878 36.9333V42.9314C9.74878 43.7188 10.3872 44.3573 11.1746 44.3573H14.9014C15.6888 44.3573 16.3272 43.7188 16.3272 42.9314V36.9333" stroke="#E19E26" stroke-width="1.5"/>
<path d="M36.7898 36.938V42.9315C36.7898 43.7189 37.4282 44.3573 38.2156 44.3573H41.8408C42.6282 44.3573 43.2666 43.7189 43.2666 42.9315V36.748" stroke="#E19E26" stroke-width="1.5"/>
<path d="M38.425 24.4871H41.3369C42.1243 24.4871 42.7628 25.1255 42.7628 25.9129V27.3487C42.7628 27.7094 42.4092 27.9643 42.0666 27.8502" stroke="#E19E26" stroke-width="1.5"/>
<path d="M14.5686 24.4871H11.657C10.8696 24.4871 10.2312 25.1255 10.2312 25.9129V27.3487C10.2312 27.7094 10.5848 27.9643 10.927 27.8502" stroke="#E19E26" stroke-width="1.5"/>
<path d="M14.4506 31.147H14.6873C15.4387 31.147 16.0475 31.7562 16.0475 32.5072C16.0475 33.2586 15.4383 33.8674 14.6873 33.8674H14.4506C13.6992 33.8674 13.0903 33.2583 13.0903 32.5072C13.0903 31.7562 13.6992 31.147 14.4506 31.147Z" stroke="#E19E26" stroke-width="1.5"/>
<path d="M38.2836 31.147H38.5203C39.2717 31.147 39.8805 31.7562 39.8805 32.5072C39.8805 33.2586 39.2713 33.8674 38.5203 33.8674H38.2836C37.5322 33.8674 36.9233 33.2583 36.9233 32.5072C36.9233 31.7562 37.5325 31.147 38.2836 31.147Z" stroke="#E19E26" stroke-width="1.5"/>
</svg>
