<svg width="84" height="104" viewBox="0 0 84 104" fill="none" xmlns="http://www.w3.org/2000/svg">
<ellipse cx="26.0169" cy="50.7737" rx="5.90558" ry="6.29128" stroke="black" stroke-width="2.5" stroke-linecap="round"/>
<ellipse cx="60.1146" cy="50.7737" rx="5.90558" ry="6.29128" stroke="black" stroke-width="2.5" stroke-linecap="round"/>
<path d="M18.8655 50.7139C16.9232 50.9458 13.0039 50.627 12.8649 47.4962C12.7387 44.6563 12.7938 40.7432 12.8483 38.6775C12.8577 38.3222 13.0551 37.9978 13.3819 37.8578C15.411 36.9887 19.6284 36.0196 20.5809 35.3211C21.8413 34.3968 39.1992 20.4826 55.7458 33.8205C56.8931 34.7453 58.3017 35.312 59.7388 35.6382C62.6872 36.3075 66.369 37.8871 68.6706 38.9545C70.0317 39.5857 70.8703 40.9609 70.8703 42.4612V45.7512C70.8703 47.2435 70.5726 48.863 69.2549 49.5636C68.5461 49.9405 67.5698 50.2099 66.2612 50.1052" stroke="black" stroke-width="2.5" stroke-linecap="round"/>
<path d="M53.5465 50.7668L32.4302 50.7725" stroke="black" stroke-width="2.5" stroke-linecap="round"/>
<path d="M25.8577 38.2534H37.8195V33.1729C35.4169 33.3066 29.5075 34.5099 25.0908 38.2534" stroke="black" stroke-width="2.5" stroke-linecap="round"/>
<path d="M53.7903 38.2534H41.8285V33.1729C44.2311 33.3066 50.1405 34.5099 54.5571 38.2534" stroke="black" stroke-width="2.5" stroke-linecap="round"/>
<circle cx="42.0047" cy="42.0047" r="40.0047" stroke="black" stroke-width="2.5" stroke-linecap="round"/>
<path d="M63.1306 76.166L79.7618 101.787" stroke="black" stroke-width="2.5" stroke-linecap="round"/>
</svg>
