<svg width="25" height="30" viewBox="0 0 25 30" fill="none" xmlns="http://www.w3.org/2000/svg">
<path d="M0.663563 0.76038C1.13675 0.27011 1.78924 0 2.50103 0H4.45721C5.89887 0 7.27477 1.11666 7.52396 2.48931L7.64732 3.16815C7.77134 3.85123 7.60444 4.49822 7.17724 4.98999C6.75004 5.48176 6.11976 5.75249 5.40229 5.75249H2.87539C2.5248 5.75249 2.1857 5.68481 1.87063 5.56468L2.13919 7.78263C2.39768 7.67761 2.68149 7.62166 2.97977 7.62166H5.86282C7.09792 7.62166 8.31106 8.57186 8.56735 9.73971L11.1163 21.3567L23.1429 20.5213C23.7928 20.4763 24.3354 20.6892 24.6718 21.1073C24.9869 21.4989 25.079 22.0243 24.9313 22.5868L23.5331 27.9088C23.2301 29.0618 21.9824 30 20.7518 30H10.6694H10.5155H5.38331C4.13633 30 3.01465 29.0246 2.88314 27.8258L0.910297 9.84573C0.899059 9.74296 0.897768 9.64168 0.901384 9.54141L0.226156 3.96587C0.130821 3.72573 0.0702381 3.47048 0.0512486 3.20574L0.00654984 2.58509C-0.0430546 1.89877 0.190374 1.25078 0.663563 0.76038Z" fill="url(#paint0_linear_1_1057)"/>
<defs>
<linearGradient id="paint0_linear_1_1057" x1="26.7857" y1="13.8462" x2="-1.7856" y2="13.9037" gradientUnits="userSpaceOnUse">
<stop stop-color="#024CAE"/>
<stop offset="0.492322" stop-color="#157DBF"/>
<stop offset="1" stop-color="#024CAE"/>
</linearGradient>
</defs>
</svg>
