<svg width="43" height="23" viewBox="0 0 43 23" fill="none" xmlns="http://www.w3.org/2000/svg">
<path d="M15.8074 17.4376C15.7309 15.5888 15.0417 14.0682 13.6086 12.9415C12.5803 12.132 11.3879 11.7819 10.0971 11.7928C7.08873 11.8257 5.25091 13.6525 4.46327 17.4047C2.98646 17.4047 1.50964 17.4047 0 17.4047C0 13.74 0 10.1082 0 6.38877C0.218788 6.38877 0.437576 6.38877 0.645425 6.38877C4.22261 6.38877 7.78885 6.38877 11.366 6.38877C12.1974 6.38877 12.3178 6.2028 11.9896 5.44798C11.4754 4.26653 10.9503 3.08507 10.4471 1.89268C10.2502 1.42229 9.96579 1.23632 9.45164 1.23632C6.51988 1.23632 3.58812 1.22538 0.645425 1.22538C0.448515 1.22538 0.251606 1.22538 0.0109394 1.22538C0.0109394 0.820619 0.0109394 0.448679 0.0109394 0.0329817C0.18597 0.0220423 0.361 0.0111033 0.536031 0.0111033C4.20073 0.0111033 7.86543 0.0220428 11.5301 0.000164047C12.7663 -0.0107754 13.5977 0.525255 14.0899 1.65201C14.6041 2.82253 15.162 3.96023 15.6871 5.13074C16.0153 5.86368 16.5185 6.33407 17.2733 6.60756C18.5313 7.05608 19.7675 7.52647 21.0146 7.99686C22.1085 8.40162 22.4367 8.88296 22.4367 10.0425C22.4367 11.9569 22.4367 13.8713 22.4367 15.7857C22.4367 17.0109 22.0101 17.4376 20.8067 17.4485C19.3299 17.4485 17.8531 17.4485 16.3763 17.4485C16.2013 17.4376 16.0262 17.4376 15.8074 17.4376Z" fill="url(#paint0_linear_1_1106)"/>
<path d="M14.6806 17.6892C14.6806 20.1944 12.6568 22.2072 10.1626 22.2181C7.66846 22.2181 5.65561 20.1944 5.64467 17.6892C5.64467 15.195 7.66846 13.1603 10.1626 13.1603C12.6568 13.1603 14.6806 15.195 14.6806 17.6892ZM10.1298 20.5882C11.7489 20.5991 13.0725 19.2864 13.0725 17.6892C13.0725 16.114 11.7598 14.8012 10.1845 14.7903C8.57643 14.7793 7.24182 16.0921 7.25276 17.7002C7.25276 19.2754 8.54361 20.5772 10.1298 20.5882Z" fill="url(#paint1_linear_1_1106)"/>
<path d="M32.8947 11.2459C32.7962 13.6526 32.0633 15.7967 30.5865 17.6892C30.2145 18.1596 29.7551 18.2581 29.4269 17.9299C29.044 17.5579 29.1643 17.1969 29.4597 16.8141C30.9037 14.9872 31.5272 12.9087 31.3632 10.6005C31.2319 8.67514 30.5318 6.96859 29.3612 5.43708C29.2081 5.24017 29.0549 4.93386 29.0987 4.71508C29.1315 4.50723 29.3941 4.18999 29.591 4.17905C29.8426 4.14623 30.2145 4.2775 30.3786 4.47441C31.385 5.65586 32.0852 7.01235 32.4462 8.52199C32.6649 9.40808 32.7525 10.3379 32.8947 11.2459Z" fill="url(#paint2_linear_1_1106)"/>
<path d="M30.0395 10.9943C30.0066 12.6789 29.5362 14.2214 28.5298 15.5779C28.1798 16.0483 27.7859 16.1686 27.4249 15.917C27.0311 15.6545 27.0202 15.2497 27.3921 14.7355C29.0221 12.4164 29.033 9.62685 27.4249 7.28581C27.0858 6.79354 27.0968 6.39972 27.4578 6.13718C27.8297 5.86369 28.2454 5.98403 28.5955 6.48724C29.5581 7.83279 30.0066 9.34242 30.0395 10.9943Z" fill="url(#paint3_linear_1_1106)"/>
<path d="M27.3705 10.9177C27.3705 11.9241 27.1079 12.8539 26.55 13.7072C26.2984 14.0901 25.9702 14.2651 25.5327 14.0245C25.1717 13.8276 25.0841 13.4119 25.3358 12.9852C26.1234 11.6725 26.1562 10.3488 25.4123 9.00328C25.1717 8.57664 25.2811 8.15 25.653 7.97497C26.0906 7.76712 26.4297 7.93121 26.6594 8.32503C27.1407 9.11267 27.3705 9.98782 27.3705 10.9177Z" fill="url(#paint4_linear_1_1106)"/>
<path d="M10.1298 20.5882C8.54361 20.5772 7.24217 19.2754 7.24217 17.6892C7.24217 16.0921 8.56584 14.7684 10.1739 14.7793C11.7601 14.7903 13.0619 16.103 13.0619 17.6783C13.0838 19.2864 11.7489 20.5991 10.1298 20.5882ZM11.4429 19.6255C11.1475 19.352 10.9178 19.1332 10.6443 18.8816C10.6443 19.2864 10.6443 19.5927 10.6443 19.9646C10.9288 19.8443 11.1475 19.7458 11.4429 19.6255ZM9.67072 18.9035C9.41912 19.166 9.20033 19.3848 8.94872 19.6474C9.16751 19.7458 9.39724 19.8333 9.67072 19.9427C9.67072 19.5708 9.67072 19.2645 9.67072 18.9035ZM9.68166 15.4138C9.40817 15.5341 9.16751 15.6326 9.07999 15.6764C9.26596 15.9498 9.44099 16.2124 9.68166 16.5515C9.68166 16.103 9.68166 15.7967 9.68166 15.4138ZM10.6443 16.4421C10.8959 16.1905 11.1147 15.9717 11.3663 15.7092C11.1366 15.6217 10.9178 15.5341 10.6443 15.4248C10.6443 15.8076 10.6443 16.103 10.6443 16.4421ZM11.3663 18.1815C11.6289 18.4768 11.8367 18.6956 12.0993 19.0019C12.2196 18.6847 12.3071 18.455 12.4056 18.1815C12.0227 18.1815 11.7273 18.1815 11.3663 18.1815ZM12.154 16.5406C11.8914 16.7703 11.6726 16.9781 11.4538 17.1751C11.7492 17.1751 12.0555 17.1751 12.4274 17.1751C12.3071 16.9016 12.2087 16.6937 12.154 16.5406ZM8.93778 18.1924C8.57678 18.1924 8.27048 18.1924 7.89854 18.1924C8.01887 18.4659 8.11733 18.6847 8.22672 18.9254C8.47833 18.6628 8.68617 18.444 8.93778 18.1924ZM8.83933 17.186C8.64242 16.9344 8.45645 16.6937 8.21578 16.3874C8.09545 16.6937 8.00793 16.9125 7.90948 17.186C8.29236 17.186 8.58772 17.186 8.83933 17.186Z" fill="url(#paint5_linear_1_1106)"/>
<path d="M11.4429 19.6255C11.1475 19.7458 10.9175 19.8442 10.644 19.9536C10.644 19.5817 10.644 19.2863 10.644 18.8706C10.9175 19.1331 11.1475 19.352 11.4429 19.6255Z" fill="url(#paint6_linear_1_1106)"/>
<path d="M9.67072 18.9035C9.67072 19.2535 9.67064 19.5707 9.67064 19.9536C9.39715 19.8442 9.17837 19.7458 8.94864 19.6582C9.21119 19.3957 9.41912 19.166 9.67072 18.9035Z" fill="url(#paint7_linear_1_1106)"/>
<path d="M9.68166 15.4138C9.68166 15.7967 9.68166 16.103 9.68166 16.5515C9.44099 16.2015 9.26596 15.9498 9.07999 15.6764C9.16751 15.6435 9.39723 15.5341 9.68166 15.4138Z" fill="url(#paint8_linear_1_1106)"/>
<path d="M10.6443 16.4421C10.6443 16.103 10.6443 15.7967 10.6443 15.4248C10.9178 15.5341 11.1366 15.6217 11.3663 15.7092C11.1147 15.9717 10.8959 16.1905 10.6443 16.4421Z" fill="url(#paint9_linear_1_1106)"/>
<path d="M11.3663 18.1815C11.7273 18.1815 12.0336 18.1815 12.4056 18.1815C12.3071 18.444 12.2196 18.6738 12.0993 19.0019C11.8258 18.7066 11.6289 18.4768 11.3663 18.1815Z" fill="url(#paint10_linear_1_1106)"/>
<path d="M12.154 16.5406C12.2196 16.6828 12.3071 16.9016 12.4274 17.1751C12.0555 17.1751 11.7492 17.1751 11.4538 17.1751C11.6617 16.9781 11.8914 16.7812 12.154 16.5406Z" fill="url(#paint11_linear_1_1106)"/>
<path d="M8.93778 18.1924C8.68617 18.444 8.4782 18.6628 8.21565 18.9253C8.10626 18.6846 8.0078 18.4658 7.88747 18.1924C8.27035 18.1924 8.57678 18.1924 8.93778 18.1924Z" fill="url(#paint12_linear_1_1106)"/>
<path d="M8.83933 17.186C8.58772 17.186 8.29236 17.186 7.90948 17.186C8.00793 16.9235 8.09545 16.6937 8.21578 16.3874C8.45645 16.7047 8.64242 16.9453 8.83933 17.186Z" fill="url(#paint13_linear_1_1106)"/>
<path d="M38.0784 12.5143V16H36V5.99998H39.3581C41.786 5.99998 43 7.05407 43 9.16325C43 10.1877 42.6335 11.0081 41.9006 11.6265C41.1676 12.2439 40.2504 12.5398 39.1509 12.5143H38.0784ZM38.0784 7.65305V10.8806H38.9797C40.2016 10.8806 40.8131 10.3357 40.8131 9.24692C40.8131 8.18366 40.2086 7.65202 38.9986 7.65202L38.0784 7.65305Z" fill="url(#paint14_linear_1_1106)"/>
<defs>
<linearGradient id="paint0_linear_1_1106" x1="-3.07143" y1="10.2545" x2="46.0704" y2="10.4844" gradientUnits="userSpaceOnUse">
<stop stop-color="#024CAE"/>
<stop offset="0.492322" stop-color="#157DBF"/>
<stop offset="1" stop-color="#024CAE"/>
</linearGradient>
<linearGradient id="paint1_linear_1_1106" x1="-3.07143" y1="10.2545" x2="46.0704" y2="10.4844" gradientUnits="userSpaceOnUse">
<stop stop-color="#024CAE"/>
<stop offset="0.492322" stop-color="#157DBF"/>
<stop offset="1" stop-color="#024CAE"/>
</linearGradient>
<linearGradient id="paint2_linear_1_1106" x1="-3.07143" y1="10.2545" x2="46.0704" y2="10.4844" gradientUnits="userSpaceOnUse">
<stop stop-color="#024CAE"/>
<stop offset="0.492322" stop-color="#157DBF"/>
<stop offset="1" stop-color="#024CAE"/>
</linearGradient>
<linearGradient id="paint3_linear_1_1106" x1="-3.07143" y1="10.2545" x2="46.0704" y2="10.4844" gradientUnits="userSpaceOnUse">
<stop stop-color="#024CAE"/>
<stop offset="0.492322" stop-color="#157DBF"/>
<stop offset="1" stop-color="#024CAE"/>
</linearGradient>
<linearGradient id="paint4_linear_1_1106" x1="-3.07143" y1="10.2545" x2="46.0704" y2="10.4844" gradientUnits="userSpaceOnUse">
<stop stop-color="#024CAE"/>
<stop offset="0.492322" stop-color="#157DBF"/>
<stop offset="1" stop-color="#024CAE"/>
</linearGradient>
<linearGradient id="paint5_linear_1_1106" x1="-3.07143" y1="10.2545" x2="46.0704" y2="10.4844" gradientUnits="userSpaceOnUse">
<stop stop-color="#024CAE"/>
<stop offset="0.492322" stop-color="#157DBF"/>
<stop offset="1" stop-color="#024CAE"/>
</linearGradient>
<linearGradient id="paint6_linear_1_1106" x1="-3.07143" y1="10.2545" x2="46.0704" y2="10.4844" gradientUnits="userSpaceOnUse">
<stop stop-color="#024CAE"/>
<stop offset="0.492322" stop-color="#157DBF"/>
<stop offset="1" stop-color="#024CAE"/>
</linearGradient>
<linearGradient id="paint7_linear_1_1106" x1="-3.07143" y1="10.2545" x2="46.0704" y2="10.4844" gradientUnits="userSpaceOnUse">
<stop stop-color="#024CAE"/>
<stop offset="0.492322" stop-color="#157DBF"/>
<stop offset="1" stop-color="#024CAE"/>
</linearGradient>
<linearGradient id="paint8_linear_1_1106" x1="-3.07143" y1="10.2545" x2="46.0704" y2="10.4844" gradientUnits="userSpaceOnUse">
<stop stop-color="#024CAE"/>
<stop offset="0.492322" stop-color="#157DBF"/>
<stop offset="1" stop-color="#024CAE"/>
</linearGradient>
<linearGradient id="paint9_linear_1_1106" x1="-3.07143" y1="10.2545" x2="46.0704" y2="10.4844" gradientUnits="userSpaceOnUse">
<stop stop-color="#024CAE"/>
<stop offset="0.492322" stop-color="#157DBF"/>
<stop offset="1" stop-color="#024CAE"/>
</linearGradient>
<linearGradient id="paint10_linear_1_1106" x1="-3.07143" y1="10.2545" x2="46.0704" y2="10.4844" gradientUnits="userSpaceOnUse">
<stop stop-color="#024CAE"/>
<stop offset="0.492322" stop-color="#157DBF"/>
<stop offset="1" stop-color="#024CAE"/>
</linearGradient>
<linearGradient id="paint11_linear_1_1106" x1="-3.07143" y1="10.2545" x2="46.0704" y2="10.4844" gradientUnits="userSpaceOnUse">
<stop stop-color="#024CAE"/>
<stop offset="0.492322" stop-color="#157DBF"/>
<stop offset="1" stop-color="#024CAE"/>
</linearGradient>
<linearGradient id="paint12_linear_1_1106" x1="-3.07143" y1="10.2545" x2="46.0704" y2="10.4844" gradientUnits="userSpaceOnUse">
<stop stop-color="#024CAE"/>
<stop offset="0.492322" stop-color="#157DBF"/>
<stop offset="1" stop-color="#024CAE"/>
</linearGradient>
<linearGradient id="paint13_linear_1_1106" x1="-3.07143" y1="10.2545" x2="46.0704" y2="10.4844" gradientUnits="userSpaceOnUse">
<stop stop-color="#024CAE"/>
<stop offset="0.492322" stop-color="#157DBF"/>
<stop offset="1" stop-color="#024CAE"/>
</linearGradient>
<linearGradient id="paint14_linear_1_1106" x1="-3.07143" y1="10.2545" x2="46.0704" y2="10.4844" gradientUnits="userSpaceOnUse">
<stop stop-color="#024CAE"/>
<stop offset="0.492322" stop-color="#157DBF"/>
<stop offset="1" stop-color="#024CAE"/>
</linearGradient>
</defs>
</svg>
