<svg width="29" height="29" viewBox="0 0 29 29" fill="none" xmlns="http://www.w3.org/2000/svg">
<path d="M2.41668 23.2435L2.41668 14.5L2.41668 5.75599C1.04739 5.52501 -3.4358e-06 4.33403 -3.56117e-06 2.9C-3.70099e-06 1.30064 1.30064 2.42156e-06 2.9 2.28173e-06C4.49936 2.14191e-06 5.8 1.30064 5.8 2.9C5.8 4.33403 4.7526 5.52501 3.38331 5.75599L3.38331 14.0166L10.15 14.0166L10.15 5.75599C8.78071 5.52495 7.73331 4.33403 7.73331 2.9C7.73331 1.30064 9.03395 1.74549e-06 10.6333 1.60567e-06C12.2327 1.46585e-06 13.5333 1.30064 13.5333 2.9C13.5333 4.33403 12.4859 5.52501 11.1166 5.75599L11.1166 14.0166L17.8833 14.0166L17.8828 5.75599C16.5135 5.52495 15.4666 4.33403 15.4666 2.9C15.4666 1.30064 16.7673 1.06942e-06 18.3666 9.29599e-07C19.966 7.89778e-07 21.2666 1.30064 21.2666 2.9C21.2666 4.33403 20.2192 5.52546 18.8495 5.7565L18.85 14.0167L25.6171 14.0167L25.6166 5.75605C24.2474 5.52501 23.2 4.33403 23.2 2.9C23.2 1.30064 24.5006 3.93347e-07 26.1 2.53526e-07C27.6994 1.13705e-07 29 1.30064 29 2.9C29 4.33403 27.9526 5.52501 26.5833 5.75599L26.5838 14.5C26.5838 14.7668 26.3673 14.9833 26.1005 14.9833L18.85 14.9833L18.85 23.2435C20.2193 23.4745 21.2667 24.6655 21.2667 26.1C21.2667 27.6988 19.966 29 18.3667 29C16.7673 29 15.4667 27.6988 15.4667 26.1C15.4667 24.6655 16.5141 23.4745 17.8834 23.2435L17.8834 14.9833L11.1167 14.9833L11.1167 23.2435C12.486 23.4745 13.5334 24.6655 13.5334 26.1C13.5334 27.6988 12.2327 29 10.6334 29C9.03401 29 7.73337 27.6988 7.73337 26.1C7.73337 24.6655 8.78077 23.4745 10.1501 23.2435L10.1501 14.9833L3.38337 14.9833L3.38337 23.2435C4.75266 23.4745 5.80006 24.6655 5.80006 26.1C5.80006 27.6988 4.49942 29 2.90006 29C1.30069 29 5.58273e-05 27.6988 5.56875e-05 26.1C-1.65837e-06 24.6655 1.0474 23.4745 2.41668 23.2435Z" fill="url(#paint0_linear_1_1096)"/>
<defs>
<linearGradient id="paint0_linear_1_1096" x1="31.0714" y1="13.3846" x2="-2.07124" y2="13.4647" gradientUnits="userSpaceOnUse">
<stop stop-color="#C67B10"/>
<stop offset="0.492322" stop-color="#C3810B"/>
<stop offset="1" stop-color="#FFD646"/>
</linearGradient>
</defs>
</svg>
