<svg width="65" height="68" viewBox="0 0 65 68" fill="none" xmlns="http://www.w3.org/2000/svg">
<path d="M9.55657 6.50557C9.75004 6.17773 10.2243 6.17773 10.4178 6.50558L11.6591 8.60909C11.7295 8.72828 11.846 8.81298 11.9811 8.84304L14.3653 9.3736C14.7369 9.45629 14.8834 9.90736 14.6314 10.1927L13.0145 12.0233C12.9228 12.127 12.8783 12.264 12.8915 12.4018L13.1236 14.8332C13.1598 15.2122 12.7761 15.491 12.4269 15.3394L10.1862 14.3673C10.0592 14.3122 9.91513 14.3122 9.78818 14.3673L7.5475 15.3394C7.19827 15.491 6.81457 15.2122 6.85075 14.8332L7.08291 12.4018C7.09606 12.264 7.05153 12.127 6.95992 12.0233L5.34294 10.1927C5.09093 9.90736 5.23749 9.45629 5.60908 9.3736L7.99324 8.84304C8.12832 8.81298 8.2449 8.72828 8.31524 8.60909L9.55657 6.50557Z" stroke="black" stroke-width="2"/>
<path d="M20.5029 6.50557C20.6963 6.17773 21.1706 6.17773 21.3641 6.50558L22.6054 8.60909C22.6758 8.72828 22.7923 8.81298 22.9274 8.84304L25.3116 9.3736C25.6832 9.45629 25.8297 9.90736 25.5777 10.1927L23.9607 12.0233C23.8691 12.127 23.8246 12.264 23.8377 12.4018L24.0699 14.8332C24.1061 15.2122 23.7224 15.491 23.3732 15.3394L21.1325 14.3673C21.0055 14.3122 20.8614 14.3122 20.7345 14.3673L18.4938 15.3394C18.1446 15.491 17.7609 15.2122 17.797 14.8332L18.0292 12.4018C18.0424 12.264 17.9978 12.127 17.9062 12.0233L16.2892 10.1927C16.0372 9.90736 16.1838 9.45629 16.5554 9.3736L18.9395 8.84304C19.0746 8.81298 19.1912 8.72828 19.2615 8.60909L20.5029 6.50557Z" stroke="black" stroke-width="2"/>
<path d="M31.4487 6.50557C31.6421 6.17773 32.1164 6.17773 32.3099 6.50558L33.5512 8.60909C33.6216 8.72828 33.7381 8.81298 33.8732 8.84304L36.2574 9.3736C36.629 9.45629 36.7755 9.90736 36.5235 10.1927L34.9065 12.0233C34.8149 12.127 34.7704 12.264 34.7835 12.4018L35.0157 14.8332C35.0519 15.2122 34.6682 15.491 34.319 15.3394L32.0783 14.3673C31.9513 14.3122 31.8072 14.3122 31.6803 14.3673L29.4396 15.3394C29.0904 15.491 28.7067 15.2122 28.7428 14.8332L28.975 12.4018C28.9882 12.264 28.9436 12.127 28.852 12.0233L27.235 10.1927C26.983 9.90736 27.1296 9.45629 27.5012 9.3736L29.8853 8.84304C30.0204 8.81298 30.137 8.72828 30.2073 8.60909L31.4487 6.50557Z" stroke="black" stroke-width="2"/>
<path d="M42.395 6.50557C42.5884 6.17773 43.0627 6.17773 43.2562 6.50558L44.4975 8.60909C44.5678 8.72828 44.6844 8.81298 44.8195 8.84304L47.2037 9.3736C47.5753 9.45629 47.7218 9.90736 47.4698 10.1927L45.8528 12.0233C45.7612 12.127 45.7167 12.264 45.7298 12.4018L45.962 14.8332C45.9982 15.2122 45.6145 15.491 45.2652 15.3394L43.0246 14.3673C42.8976 14.3122 42.7535 14.3122 42.6266 14.3673L40.3859 15.3394C40.0367 15.491 39.6529 15.2122 39.6891 14.8332L39.9213 12.4018C39.9344 12.264 39.8899 12.127 39.7983 12.0233L38.1813 10.1927C37.9293 9.90736 38.0759 9.45629 38.4475 9.3736L40.8316 8.84304C40.9667 8.81298 41.0833 8.72828 41.1536 8.60909L42.395 6.50557Z" stroke="black" stroke-width="2"/>
<path d="M53.3408 6.50557C53.5342 6.17773 54.0085 6.17773 54.202 6.50558L55.4433 8.60909C55.5136 8.72828 55.6302 8.81298 55.7653 8.84304L58.1495 9.3736C58.5211 9.45629 58.6676 9.90736 58.4156 10.1927L56.7986 12.0233C56.707 12.127 56.6625 12.264 56.6756 12.4018L56.9078 14.8332C56.944 15.2122 56.5603 15.491 56.211 15.3394L53.9704 14.3673C53.8434 14.3122 53.6993 14.3122 53.5724 14.3673L51.3317 15.3394C50.9825 15.491 50.5988 15.2122 50.6349 14.8332L50.8671 12.4018C50.8802 12.264 50.8357 12.127 50.7441 12.0233L49.1271 10.1927C48.8751 9.90736 49.0217 9.45629 49.3933 9.3736L51.7774 8.84304C51.9125 8.81298 52.0291 8.72828 52.0994 8.60909L53.3408 6.50557Z" stroke="black" stroke-width="2"/>
<rect x="11.0103" y="41.2183" width="9.61865" height="24.9829" stroke="black" stroke-width="2" stroke-linecap="round"/>
<rect x="20.6289" y="44.0732" width="4.95459" height="19.1467" stroke="black" stroke-width="2" stroke-linecap="round"/>
<circle cx="15.8197" cy="46.7606" r="1.5116" fill="black"/>
<path d="M26.4302 45.4174C29.3516 42.7064 35.0542 36.5692 34.4932 33.7087C33.792 30.1331 39.8917 30.8342 39.9619 35.111C40.1956 37.378 38.7699 42.8935 38.7699 42.8935H48.9362C48.9362 42.8935 51.9252 42.513 52.0912 45.4174C52.2571 48.3219 48.9362 48.5726 48.9362 48.5726M48.9362 48.5726H44.1686M48.9362 48.5726C52.3574 48.5726 53.1765 54.0143 48.9362 54.0143M48.9362 54.0143H43.9077M48.9362 54.0143C53.5645 54.0143 52.8748 59.2649 48.9362 58.8858M48.9362 58.8858H44.1686M48.9362 58.8858C53.0903 59.308 52.33 63.5064 48.3052 63.5064C44.2804 63.5064 31.4082 63.5064 31.4082 63.5064C30.5435 62.7586 28.2391 61.2629 25.9395 61.2629" stroke="black" stroke-width="2" stroke-linecap="round"/>
<path fill-rule="evenodd" clip-rule="evenodd" d="M3 0C1.34315 0 0 1.34315 0 3V19.0461C0 20.703 1.34314 22.0461 3 22.0461H27.6206C27.7025 22.2304 27.8191 22.4901 27.9612 22.8004C28.25 23.4307 28.6467 24.2747 29.0754 25.1217C29.501 25.9625 29.9711 26.8321 30.4065 27.5015C30.6216 27.8322 30.8505 28.1489 31.0808 28.3941C31.1954 28.5162 31.3356 28.6479 31.4986 28.7554C31.6496 28.8551 31.9122 28.9954 32.2505 28.9954C32.59 28.9954 32.8531 28.8542 33.0051 28.7529C33.1684 28.6442 33.3079 28.5111 33.4214 28.3883C33.6493 28.1417 33.8743 27.8238 34.0848 27.4927C34.5109 26.8224 34.9685 25.952 35.3817 25.1111C35.798 24.2639 36.1824 23.4197 36.4619 22.7892C36.5967 22.4851 36.7076 22.2297 36.7865 22.0461H61.1907C62.8475 22.0461 64.1907 20.703 64.1907 19.0461V3C64.1907 1.34315 62.8475 0 61.1907 0H3ZM34.6035 22.0461H29.8156C30.0943 22.6528 30.4643 23.437 30.8598 24.2184C31.2758 25.0403 31.7073 25.8333 32.083 26.4109C32.1403 26.499 32.1943 26.5789 32.2448 26.6508C32.2924 26.5813 32.3432 26.5043 32.3969 26.4197C32.7635 25.843 33.1829 25.0507 33.5867 24.229C33.973 23.443 34.3332 22.6542 34.6035 22.0461ZM2 3C2 2.44772 2.44772 2 3 2H61.1907C61.743 2 62.1907 2.44771 62.1907 3V19.0461C62.1907 19.5984 61.743 20.0461 61.1907 20.0461H3C2.44771 20.0461 2 19.5984 2 19.0461V3Z" fill="black"/>
</svg>
