<svg width="12" height="29" viewBox="0 0 12 29" fill="none" xmlns="http://www.w3.org/2000/svg">
<path d="M10.0413 0.195798C10.3328 0.366269 10.3325 0.397493 10.3014 4.14801L10.2722 7.66804L10.7144 7.67171C11.132 7.67518 11.169 7.68798 11.3669 7.8889L11.5769 8.10241L11.4962 17.8277L11.4155 27.553L11.2333 27.7508L11.0511 27.9548L5.89888 27.912L0.746705 27.8692L0.567881 27.6622L0.388722 27.4615L0.468934 17.7986C0.557007 7.18884 0.526237 7.88634 0.926753 7.68414C1.0268 7.63501 1.27014 7.5936 1.48217 7.59536L1.856 7.59846L1.90453 4.01018L1.95305 0.421894L2.16005 0.243071L2.36082 0.0639132L6.14795 0.0953504C8.60265 0.121404 9.96696 0.151465 10.0413 0.195798ZM3.19578 4.46289L3.16967 7.60908L6.09787 7.63339L9.02607 7.6577L9.05183 4.55521C9.066 2.84813 9.05905 1.42759 9.03423 1.40865C9.0157 1.38351 7.6951 1.35382 6.10639 1.34063L3.2219 1.31668L3.19578 4.46289Z" fill="url(#paint0_linear_1_1071)"/>
<path d="M8.13247 2.69748C8.16311 2.76642 8.19126 3.10298 8.18841 3.44553C8.18216 4.19932 8.13169 4.26106 7.52747 4.25604C6.92325 4.25103 6.87381 4.18846 6.88028 3.4097C6.88705 2.59376 6.90599 2.56894 7.57237 2.57447C7.99637 2.57799 8.07738 2.5974 8.13247 2.69748Z" fill="url(#paint1_linear_1_1071)"/>
<path d="M5.41547 2.65622C5.49574 2.73153 5.51312 2.89374 5.50893 3.39834C5.50247 4.1771 5.452 4.23884 4.84778 4.23383C4.24356 4.22881 4.19413 4.16624 4.20059 3.38748C4.20731 2.57779 4.23255 2.54677 4.86174 2.552C5.19834 2.55451 5.34741 2.58072 5.41547 2.65622Z" fill="url(#paint2_linear_1_1071)"/>
<defs>
<linearGradient id="paint0_linear_1_1071" x1="12.3063" y1="15.1258" x2="-0.29591" y2="15.0091" gradientUnits="userSpaceOnUse">
<stop stop-color="#024CAE"/>
<stop offset="0.492322" stop-color="#157DBF"/>
<stop offset="1" stop-color="#024CAE"/>
</linearGradient>
<linearGradient id="paint1_linear_1_1071" x1="8.28154" y1="3.48602" x2="6.78632" y2="3.4708" gradientUnits="userSpaceOnUse">
<stop stop-color="#024CAE"/>
<stop offset="0.492322" stop-color="#157DBF"/>
<stop offset="1" stop-color="#024CAE"/>
</linearGradient>
<linearGradient id="paint2_linear_1_1071" x1="5.60185" y1="3.4638" x2="4.10663" y2="3.44858" gradientUnits="userSpaceOnUse">
<stop stop-color="#024CAE"/>
<stop offset="0.492322" stop-color="#157DBF"/>
<stop offset="1" stop-color="#024CAE"/>
</linearGradient>
</defs>
</svg>
