<svg width="21" height="21" viewBox="0 0 21 21" fill="none" xmlns="http://www.w3.org/2000/svg">
<path fill-rule="evenodd" clip-rule="evenodd" d="M14.4878 13.531C14.2325 14.307 13.232 14.694 12.5172 14.6294C11.5411 14.5412 10.4788 14.0234 9.6725 13.4532C8.48729 12.6149 7.37707 11.3182 6.73014 9.94222C6.27293 8.96993 6.17035 7.77449 6.85037 6.88824C7.10187 6.56064 7.37376 6.38568 7.78244 6.36528C8.3494 6.3377 8.42882 6.66204 8.62351 7.16722C8.76856 7.54499 8.96214 7.93035 9.07024 8.32192C9.27265 9.05266 8.56505 9.0832 8.4757 9.68048C8.42 10.0571 8.87666 10.5623 9.08293 10.8309C9.48719 11.357 9.97307 11.8108 10.5213 12.156C10.8351 12.354 11.342 12.7108 11.7015 12.5139C12.2553 12.2106 12.2029 11.2769 12.9772 11.5929C13.3782 11.7562 13.7664 11.9918 14.1492 12.198C14.741 12.5163 14.7134 12.846 14.4878 13.531C14.6566 13.0192 14.3191 14.0428 14.4878 13.531Z" fill="black"/>
<path d="M0.391652 21C0.329537 21.0002 0.26828 20.9855 0.212962 20.9573C0.157644 20.9291 0.109861 20.8881 0.0735771 20.8378C0.0372932 20.7875 0.0135546 20.7292 0.00433096 20.6679C-0.00489272 20.6066 0.000664589 20.5439 0.0205415 20.4852L1.56358 15.9533C0.349616 13.9371 -0.155879 11.5741 0.127154 9.23863C0.410187 6.90318 1.46557 4.72875 3.12615 3.05972C5.09767 1.10015 7.76638 0 10.5484 0C13.3303 0 15.999 1.10015 17.9706 3.05972C19.7085 4.81976 20.7693 7.13513 20.9665 9.59876C21.1638 12.0624 20.4848 14.5166 19.049 16.5299C17.6131 18.5432 15.5124 19.9867 13.116 20.6067C10.7197 21.2267 8.18108 20.9834 5.94659 19.9197L0.46978 21H0.391652ZM5.99737 19.1085C6.05852 19.1088 6.11873 19.1235 6.17316 19.1514C8.23992 20.1806 10.6057 20.4433 12.8485 19.8926C15.0912 19.3419 17.0651 18.0137 18.418 16.1449C19.7709 14.2761 20.4147 11.9882 20.2348 9.68935C20.0548 7.39053 19.0627 5.2303 17.4354 3.59403C16.531 2.69097 15.4574 1.97461 14.2757 1.48586C13.094 0.997117 11.8274 0.745562 10.5484 0.745562C9.26928 0.745562 8.00273 0.997117 6.82104 1.48586C5.63936 1.97461 4.56568 2.69097 3.66133 3.59403C2.10542 5.16368 1.12732 7.21279 0.886161 9.40796C0.645007 11.6031 1.15499 13.8152 2.33314 15.6842C2.36441 15.7336 2.38416 15.7894 2.39092 15.8475C2.39768 15.9055 2.39129 15.9644 2.37221 16.0196L0.981522 20.1108L5.92705 19.128L5.99737 19.1085Z" fill="black"/>
</svg>
